<svg width="129" height="129" viewBox="0 0 129 129" fill="none" xmlns="http://www.w3.org/2000/svg">
<g clip-path="url(#clip0_169_128)">
<path d="M71.5271 40.1158C76.4174 40.2576 81.1267 38.7503 85.4282 35.621C92.889 30.1932 100.176 31.4305 103.653 32.5388C103.889 32.6134 104.095 32.7613 104.242 32.961C104.388 33.1608 104.467 33.402 104.468 33.6498V38.4846C104.468 40.8293 107.001 42.2983 109.036 41.1333L125.329 31.8057C127.376 30.6335 127.376 27.6805 125.329 26.508L109.036 17.1804C107.002 16.0154 104.468 17.4846 104.468 19.8292V23.5192C104.468 24.2554 103.794 24.8084 103.073 24.6597C97.6688 23.5452 89.399 23.4572 81.0159 29.5557C77.7367 31.9415 74.4811 32.696 71.5269 32.5835L71.5271 40.1158ZM125.329 59.4882L109.036 50.1606C107.002 48.9956 104.468 50.4649 104.468 52.8094V56.4994C104.468 57.2357 103.794 57.7887 103.073 57.64C97.6688 56.5254 89.399 56.4374 81.0159 62.536C77.7367 64.9218 74.4811 65.6763 71.5269 65.5638V73.0958C76.4171 73.2376 81.1264 71.7303 85.428 68.601C92.8888 63.1732 100.176 64.4105 103.652 65.5188C103.889 65.5934 104.095 65.7413 104.241 65.941C104.388 66.1408 104.467 66.382 104.467 66.6298V71.4646C104.467 73.8093 107.001 75.2783 109.036 74.1133L125.328 64.7858C127.376 63.6135 127.376 60.6605 125.329 59.4882ZM125.329 92.4685L109.036 83.1409C107.002 81.9759 104.468 83.4452 104.468 85.7897V89.4797C104.468 90.216 103.794 90.769 103.073 90.6202C97.6688 89.5057 89.399 89.4177 81.0159 95.5163C77.7367 97.902 74.4811 98.6565 71.5269 98.544V106.076C76.4171 106.218 81.1264 104.711 85.428 101.581C92.8888 96.1535 100.176 97.3908 103.652 98.499C103.889 98.5736 104.095 98.7215 104.241 98.9213C104.388 99.1211 104.467 99.3623 104.467 99.61V104.445C104.467 106.79 107.001 108.259 109.036 107.094L125.328 97.766C127.376 96.5938 127.376 93.6407 125.329 92.4685Z" stroke="black" stroke-width="5" stroke-miterlimit="10" stroke-linecap="round" stroke-linejoin="round"/>
<path d="M39.5798 47.5672C42.7652 47.5672 45.3475 44.9849 45.3475 41.7995C45.3475 38.614 42.7652 36.0317 39.5798 36.0317C36.3943 36.0317 33.812 38.614 33.812 41.7995C33.812 44.9849 36.3943 47.5672 39.5798 47.5672Z" stroke="black" stroke-width="5" stroke-miterlimit="10" stroke-linecap="round" stroke-linejoin="round"/>
<path d="M19.3321 33.4825C23.0489 33.4825 26.0621 30.4693 26.0621 26.7525C26.0621 23.0356 23.0489 20.0225 19.3321 20.0225C15.6152 20.0225 12.6021 23.0356 12.6021 26.7525C12.6021 30.4693 15.6152 33.4825 19.3321 33.4825Z" stroke="black" stroke-width="5" stroke-miterlimit="10" stroke-linecap="round" stroke-linejoin="round"/>
<path d="M38.3877 93.5132C41.4943 93.5132 44.0127 90.9948 44.0127 87.8882C44.0127 84.7816 41.4943 82.2632 38.3877 82.2632C35.2811 82.2632 32.7627 84.7816 32.7627 87.8882C32.7627 90.9948 35.2811 93.5132 38.3877 93.5132Z" stroke="black" stroke-width="5" stroke-miterlimit="10" stroke-linecap="round" stroke-linejoin="round"/>
<path d="M27.7183 70.5054C31.7396 70.5054 34.9995 67.2454 34.9995 63.2241C34.9995 59.2028 31.7396 55.9429 27.7183 55.9429C23.6969 55.9429 20.437 59.2028 20.437 63.2241C20.437 67.2454 23.6969 70.5054 27.7183 70.5054Z" stroke="black" stroke-width="5" stroke-miterlimit="10" stroke-linecap="round" stroke-linejoin="round"/>
<path d="M15.9006 103.461C18.6079 101.932 20.4369 99.0297 20.4369 95.6987C20.4369 90.7772 16.4471 86.7874 11.5256 86.7874C6.60404 86.7874 2.61426 90.7772 2.61426 95.6987C2.61426 99.0297 4.44327 101.932 7.15054 103.461M53.6234 68.5122V121.934C53.6234 124.324 55.5612 126.262 57.9514 126.262H67.199C69.5893 126.262 71.527 124.324 71.527 121.934V6.34024C71.527 3.94997 69.5893 2.01221 67.199 2.01221H57.9514C55.5612 2.01221 53.6234 3.94997 53.6234 6.34024V59.7622" stroke="black" stroke-width="5" stroke-miterlimit="10" stroke-linecap="round" stroke-linejoin="round"/>
</g>
<defs>
<clipPath id="clip0_169_128">
<rect width="128" height="128" fill="white" transform="translate(0.739258 0.137207)"/>
</clipPath>
</defs>
</svg>
