<svg width="129" height="129" viewBox="0 0 129 129" fill="none" xmlns="http://www.w3.org/2000/svg">
<path d="M57.8231 49.0167C58.3536 49.0167 58.8623 48.806 59.2374 48.4309C59.6124 48.0559 59.8231 47.5472 59.8231 47.0167V36.4567C59.823 36.1224 59.7391 35.7935 59.5791 35.5001C59.4191 35.2066 59.1881 34.9579 58.9071 34.7767L50.2831 29.2087V22.1367C50.2831 21.0772 49.8628 20.061 49.1144 19.3111C48.366 18.5612 47.3506 18.1388 46.2911 18.1367H41.6091V12.1367C41.6091 9.93072 39.8151 8.13672 37.6091 8.13672H31.6091C29.4031 8.13672 27.6091 9.93072 27.6091 12.1367V18.1367H26.3231C24.6531 18.1367 23.1431 19.1887 22.5631 20.7507C20.2687 26.9306 18.4671 33.2825 17.1751 39.7467C16.7111 42.3447 20.5291 43.0867 21.0951 40.5287C22.3431 34.2887 24.0971 28.1027 26.3231 22.1367H46.2831V30.2967C46.2831 30.6308 46.3667 30.9596 46.5263 31.2531C46.686 31.5465 46.9166 31.7953 47.1971 31.9767L55.8231 37.5467V45.0167H50.7631C50.3315 45.0168 49.9115 45.1565 49.5658 45.4149C49.2201 45.6734 48.9673 46.0367 48.8451 46.4507C47.3508 51.5521 46.514 56.8234 46.3551 62.1367H18.8231C18.8871 58.0887 19.1111 54.0847 19.5711 50.2347C19.8471 47.6227 15.9511 47.1627 15.5971 49.7607C14.1591 61.8907 14.5931 74.7007 16.8371 86.7807C18.1448 93.8474 20.0586 100.788 22.5571 107.527C23.3411 109.667 25.4831 110.347 27.6091 110.137V116.137C27.6091 118.343 29.4031 120.137 31.6091 120.137H37.6091C39.8151 120.137 41.6091 118.343 41.6091 116.137V110.137H46.2831C48.4891 110.137 50.2831 108.343 50.2831 106.137V99.0667L58.9071 93.4967C59.1881 93.3155 59.4191 93.0669 59.5791 92.7734C59.7391 92.4799 59.823 92.151 59.8231 91.8167V81.2567C59.8231 80.7263 59.6124 80.2176 59.2374 79.8425C58.8623 79.4674 58.3536 79.2567 57.8231 79.2567H52.2771C49.6192 69.3519 49.6192 58.9215 52.2771 49.0167H57.8231ZM31.6091 18.1367V12.1367H37.6091V18.1367H31.6091ZM37.6111 116.137H31.6091V110.137H37.6091L37.6111 116.137ZM55.8231 83.2567V90.7287L47.1971 96.2967C46.9166 96.4781 46.686 96.7269 46.5263 97.0204C46.3667 97.3139 46.2831 97.6426 46.2831 97.9767V106.137L26.3051 106.133C21.5494 93.3243 19.015 79.798 18.8111 66.1367H46.3551C46.5251 71.4187 47.3291 76.6867 48.8451 81.8247C48.9678 82.2387 49.221 82.6018 49.5671 82.8599C49.9131 83.118 50.3334 83.2572 50.7651 83.2567H55.8231ZM111.699 80.2627C112.225 80.3216 112.754 80.171 113.17 79.8435C113.586 79.5161 113.857 79.038 113.923 78.5127C115.363 66.3827 114.927 53.5727 112.683 41.4927C111.376 34.4268 109.463 27.4865 106.965 20.7487C106.181 18.6067 104.039 17.9287 101.911 18.1367V12.1367C101.911 9.93072 100.119 8.13672 97.9111 8.13672H91.9111C89.7071 8.13672 87.9111 9.93072 87.9111 12.1367V18.1367H83.2391C81.0331 18.1367 79.2391 19.9307 79.2391 22.1367V29.2087L70.6131 34.7787C70.3326 34.9601 70.102 35.2089 69.9423 35.5024C69.7827 35.7958 69.6991 36.1246 69.6991 36.4587V47.0187C69.6991 47.5492 69.9099 48.0579 70.2849 48.4329C70.66 48.808 71.1687 49.0187 71.6991 49.0187H77.2431C79.9011 58.9235 79.9011 69.3539 77.2431 79.2587H71.6991C71.1687 79.2587 70.66 79.4694 70.2849 79.8445C69.9099 80.2196 69.6991 80.7283 69.6991 81.2587V91.8167C69.6991 92.1508 69.7827 92.4796 69.9423 92.773C70.102 93.0665 70.3326 93.3153 70.6131 93.4967L79.2391 99.0667V106.137C79.2391 107.196 79.6592 108.212 80.4072 108.962C81.1552 109.711 82.17 110.134 83.2291 110.137H87.9131V116.137C87.9131 118.343 89.7071 120.137 91.9131 120.137H97.9131C100.119 120.137 101.913 118.343 101.913 116.137V110.137C104.011 110.337 106.189 109.683 106.959 107.523C109.254 101.343 111.055 94.9923 112.347 88.5287C112.811 85.9287 108.983 85.1847 108.427 87.7447C107.176 94.0045 105.428 100.155 103.199 106.137H83.2391V97.9767C83.239 97.6424 83.1551 97.3135 82.9951 97.0201C82.8351 96.7266 82.6041 96.4779 82.3231 96.2967L73.6991 90.7287V83.2567H78.7591C79.1904 83.2562 79.61 83.1164 79.9553 82.8579C80.3006 82.5995 80.5531 82.2364 80.6751 81.8227C82.1695 76.7214 83.0063 71.4501 83.1651 66.1367H110.699C110.633 70.1867 110.409 74.1907 109.951 78.0407C109.889 78.5674 110.038 79.0974 110.366 79.5141C110.694 79.9308 111.172 80.2001 111.699 80.2627ZM97.9151 110.137V116.137H91.9151V110.137H97.9151ZM91.9091 12.1367H97.9131V18.1367H91.9131L91.9091 12.1367ZM73.6991 45.0167V37.5467L82.3231 31.9767C82.6041 31.7955 82.8351 31.5469 82.9951 31.2534C83.1551 30.9599 83.239 30.631 83.2391 30.2967V22.1367L103.215 22.1407C107.972 34.949 110.507 48.4753 110.711 62.1367H83.1651C83.0063 56.8234 82.1695 51.5521 80.6751 46.4507C80.553 46.0367 80.3002 45.6734 79.9545 45.4149C79.6088 45.1565 79.1888 45.0168 78.7571 45.0167H73.6991Z" fill="black"/>
</svg>
