<svg width="129" height="129" viewBox="0 0 129 129" fill="none" xmlns="http://www.w3.org/2000/svg">
<g clip-path="url(#clip0_95_49)">
<path d="M120.323 49.5591C120.236 49.4599 120.163 49.3632 120.061 49.2666L115.576 44.9379C119.296 44.0941 123.301 40.9776 123.301 37.7801C123.301 34.0548 118.131 32.733 113.719 32.733C109.105 32.733 108.57 35.8939 108.515 38.1275L96.9421 26.9701C94.591 24.6425 90.1317 22.8113 86.7983 22.8113H41.7091C38.3784 22.8113 33.9217 24.6425 31.568 26.9701L19.9979 38.1275C19.9378 35.8939 19.4023 32.733 14.7941 32.733C10.3766 32.733 5.20937 34.0548 5.20937 37.7801C5.20937 40.9776 9.21671 44.0941 12.9367 44.9379L8.45129 49.2666C8.34941 49.3632 8.27888 49.4599 8.19006 49.5591C3.39117 53.6605 0.256348 61.2677 0.256348 66.7876V83.1906C0.256348 87.1718 1.82637 90.7847 4.36296 93.478V99.8391C4.36296 103.559 7.47689 106.592 11.3066 106.592H19.7027C23.5324 106.592 26.6437 103.564 26.6437 99.8391V98.2116H101.866V99.8391C101.866 103.564 104.975 106.592 108.81 106.592H117.203C121.036 106.592 124.145 103.559 124.145 99.8391V93.478C126.78 90.7011 128.25 87.019 128.251 83.1906V66.7876C128.256 61.2677 125.122 53.6605 120.323 49.5591ZM35.8183 31.9284C37.4458 30.5726 40.2906 29.5433 41.7091 29.5433H86.8036C88.2221 29.5433 91.0669 30.5726 92.6944 31.9284L107.87 46.6359H20.6458L35.8183 31.9284ZM5.46276 64.3059C5.46276 60.2672 8.62371 56.9887 12.5266 56.9887C16.4268 56.9887 29.1725 64.4704 29.1725 68.5091C29.1725 72.5478 16.4268 71.6126 12.5266 71.6126C8.62371 71.6126 5.46276 68.3472 5.46276 64.3059ZM26.6463 91.0198H23.9556L15.9749 91.0328C13.7596 90.3432 12.1974 89.5386 11.0924 88.6739C10.5926 88.2886 10.1479 87.8368 9.77053 87.3311C9.45774 86.9182 9.20773 86.4614 9.02862 85.9753C8.03593 83.1697 10.0866 80.5913 10.0866 80.5913H23.7074L32.788 91.0145L26.6463 91.0198ZM83.8411 91.025H44.6715C42.7101 91.0243 40.8291 90.245 39.4419 88.8583C38.0547 87.4716 37.2748 85.5909 37.2734 83.6294H91.2393C91.2386 85.5911 90.4589 87.4722 89.0715 88.859C87.6842 90.2459 85.8028 91.025 83.8411 91.025ZM85.5601 78.5824H42.9526C38.5116 78.5824 34.9066 73.1069 34.9066 66.354H93.6061C93.6061 73.1095 90.0011 78.5824 85.5601 78.5824ZM119.487 85.9805C119.306 86.4656 119.055 86.9215 118.742 87.3337C118.366 87.8407 117.921 88.2926 117.42 88.6765C116.318 89.5412 114.753 90.351 112.538 91.0354L104.557 91.0224H95.7195L104.805 80.5991H118.423C118.423 80.5965 120.477 83.1697 119.487 85.9805ZM115.986 71.6126C112.088 71.6126 99.3428 72.5426 99.3428 68.5091C99.3428 64.4757 112.088 56.9887 115.986 56.9887C119.889 56.9887 123.05 60.2672 123.05 64.3059C123.05 68.342 119.889 71.6126 115.986 71.6126Z" fill="black"/>
</g>
<defs>
<clipPath id="clip0_95_49">
<rect width="128" height="128" fill="white" transform="translate(0.254883 0.702881)"/>
</clipPath>
</defs>
</svg>
