<svg width="129" height="129" viewBox="0 0 129 129" fill="none" xmlns="http://www.w3.org/2000/svg">
<g clip-path="url(#clip0_95_46)">
<path d="M102.341 67.3001C102.341 66.6335 102.076 65.9942 101.604 65.5228C101.133 65.0515 100.494 64.7867 99.8272 64.7867H93.1373L89.1276 56.0095C87.5863 52.634 84.5071 50.1234 80.89 49.2942C75.2278 47.9967 52.8944 47.9967 47.2317 49.2942C43.6149 50.1237 40.5354 52.6337 38.9947 56.0087L34.9844 64.7867H28.3269C26.9386 64.7867 25.8135 65.9118 25.8135 67.3001C25.8135 68.6883 26.9386 69.8135 28.3269 69.8135H32.3252L28.8117 73.3272C26.77 75.3684 25.7934 78.2932 26.1991 81.1512L27.4709 90.1174C27.8108 92.5122 28.9901 94.6215 30.6808 96.1667V99.7598C30.6808 102.765 33.1258 105.21 36.1313 105.21H43.4155C46.421 105.21 48.866 102.765 48.866 99.7598V98.8398H79.2588V99.7598C79.2588 102.765 81.7038 105.21 84.7093 105.21H91.9915C94.997 105.21 97.4423 102.765 97.4423 99.7598V96.1672C99.1332 94.622 100.313 92.5125 100.653 90.1174L101.925 81.1512C102.329 78.2935 101.353 75.3684 99.3122 73.3275L95.7985 69.8135H99.8283C101.215 69.8135 102.341 68.6883 102.341 67.3001ZM90.6046 93.8127H37.5173C35.5393 93.8127 33.7818 92.6574 32.9345 90.958H95.188C94.3404 92.6574 92.583 93.8127 90.6046 93.8127ZM80.4312 83.3111L81.2497 85.9315H46.8723L47.6908 83.3111H80.4312ZM41.6056 85.9315H31.954L31.5823 83.3111H42.4241L41.6056 85.9315ZM86.5164 85.9315L85.6979 83.3111H96.5399L96.1682 85.9315H86.5164ZM31.4483 78.2843C31.6574 77.7657 31.9627 77.2848 32.3657 76.8818L36.6874 72.5601H91.4352L95.7566 76.8818C96.1596 77.2845 96.4648 77.7657 96.674 78.2843H31.4483ZM43.5674 58.0971C44.463 56.1349 46.2529 54.676 48.3552 54.1937C53.3457 53.0501 74.7765 53.0501 79.7671 54.1937C81.8691 54.6757 83.6592 56.1349 84.5554 58.0976L88.8665 67.5333H39.2566L43.5674 58.0971ZM43.8383 99.7595C43.8381 99.8718 43.7934 99.9794 43.714 100.059C43.6346 100.138 43.5269 100.183 43.4147 100.183H36.1305C35.897 100.183 35.7068 99.9932 35.7068 99.7595V98.6745C36.2961 98.7826 36.901 98.8398 37.5168 98.8398H43.8383V99.7595ZM92.4146 99.7595C92.4143 99.8718 92.3696 99.9795 92.2901 100.059C92.2107 100.138 92.103 100.183 91.9906 100.183H84.7084C84.475 100.183 84.2848 99.9932 84.2848 99.7595V98.8396H90.6046C91.2204 98.8396 91.8253 98.7826 92.4143 98.6745L92.4146 99.7595ZM21.4298 49.2378L14.1191 46.7465V39.4143C14.1191 38.026 12.9939 36.9008 11.6057 36.9008C10.2174 36.9008 9.09226 38.026 9.09226 39.4143V45.0334L3.4016 43.0942C2.0882 42.6471 0.659741 43.3486 0.211795 44.6626C-0.236152 45.9765 0.465929 47.4047 1.77989 47.8524L19.8081 53.9963C20.0692 54.0855 20.3432 54.1311 20.6191 54.1312C21.1437 54.1309 21.6551 53.9665 22.0817 53.6611C22.5083 53.3557 22.8286 52.9245 22.9979 52.4279C23.1044 52.1155 23.1483 51.7851 23.1272 51.4557C23.106 51.1263 23.0202 50.8043 22.8746 50.5081C22.7289 50.2118 22.5264 49.9472 22.2785 49.7292C22.0306 49.5113 21.7422 49.3443 21.4298 49.2378ZM21.4298 87.5538L3.4016 81.4098C2.0882 80.9625 0.659741 81.6643 0.211795 82.9782C-0.236152 84.2922 0.465929 85.7204 1.77989 86.168L19.8081 92.3119C20.0692 92.4012 20.3432 92.4468 20.6191 92.4468C21.1437 92.4466 21.6551 92.2822 22.0817 91.9768C22.5083 91.6714 22.8286 91.2402 22.9979 90.7436C23.1044 90.4312 23.1483 90.1008 23.1272 89.7714C23.106 89.4421 23.0202 89.1201 22.8745 88.8239C22.7289 88.5277 22.5264 88.263 22.2785 88.0451C22.0306 87.8272 21.7422 87.6602 21.4298 87.5538ZM21.4298 95.2169L3.4016 89.073C2.0882 88.6253 0.659741 89.3274 0.211795 90.6414C-0.236152 91.9553 0.465929 93.3835 1.77989 93.8312L19.8081 99.9751C20.0692 100.064 20.3432 100.11 20.6191 100.11C21.1437 100.11 21.6551 99.9453 22.0817 99.6399C22.5083 99.3345 22.8286 98.9033 22.9979 98.4067C23.1044 98.0943 23.1483 97.764 23.1272 97.4346C23.106 97.1052 23.0202 96.7832 22.8745 96.487C22.7289 96.1908 22.5264 95.9262 22.2785 95.7082C22.0306 95.4903 21.7422 95.3233 21.4298 95.2169ZM21.4298 102.88L3.4016 96.7361C2.77062 96.5212 2.08014 96.5658 1.48198 96.8599C0.883812 97.154 0.426933 97.6736 0.211795 98.3045C0.105284 98.6169 0.0613552 98.9472 0.0825181 99.2766C0.103681 99.606 0.189521 99.928 0.335135 100.224C0.480749 100.52 0.683286 100.785 0.931178 101.003C1.17907 101.221 1.46746 101.388 1.77989 101.494L9.09226 103.986V110.99C9.09226 112.379 10.2174 113.504 11.6057 113.504C12.9939 113.504 14.1191 112.379 14.1191 110.99V105.699L19.8081 107.638C20.0692 107.727 20.3432 107.773 20.6191 107.773C21.1437 107.773 21.6551 107.608 22.0817 107.303C22.5083 106.997 22.8286 106.566 22.9979 106.07C23.4458 104.756 22.7437 103.328 21.4298 102.88ZM21.4298 56.9009L3.4016 50.757C2.0882 50.3094 0.659741 51.0114 0.211795 52.3254C0.105284 52.6378 0.0613552 52.9681 0.0825181 53.2975C0.103681 53.6269 0.189521 53.9489 0.335135 54.2451C0.480749 54.5413 0.683286 54.8059 0.931178 55.0239C1.17907 55.2418 1.46746 55.4088 1.77989 55.5152L19.8081 61.6591C20.0692 61.7484 20.3432 61.794 20.6191 61.794C21.1437 61.7937 21.6551 61.6294 22.0817 61.324C22.5083 61.0185 22.8286 60.5873 22.9979 60.0908C23.2129 59.4598 23.1685 58.7693 22.8744 58.1711C22.5804 57.5729 22.0607 57.116 21.4298 56.9009ZM21.4298 64.5641L3.4016 58.4202C2.0882 57.9728 0.659741 58.6746 0.211795 59.9885C-0.236152 61.3025 0.465929 62.7307 1.77989 63.1783L19.8081 69.3223C20.0692 69.4115 20.3432 69.4571 20.6191 69.4571C21.1437 69.4569 21.6551 69.2925 22.0817 68.9871C22.5083 68.6817 22.8286 68.2505 22.9979 67.7539C23.2129 67.1229 23.1685 66.4324 22.8744 65.8342C22.5804 65.236 22.0607 64.7791 21.4298 64.5641ZM21.4298 72.2272L3.4016 66.0833C2.0882 65.6362 0.659741 66.3377 0.211795 67.6517C-0.236152 68.9656 0.465929 70.3938 1.77989 70.8415L19.8081 76.9854C20.0692 77.0746 20.3432 77.1202 20.6191 77.1203C21.1437 77.12 21.6551 76.9557 22.0817 76.6502C22.5083 76.3448 22.8286 75.9136 22.9979 75.417C23.2129 74.7861 23.1685 74.0956 22.8744 73.4974C22.5804 72.8992 22.0607 72.4423 21.4298 72.2272ZM21.4298 79.8903L3.4016 73.7464C2.77062 73.5316 2.08014 73.5761 1.48198 73.8702C0.883812 74.1643 0.426933 74.6839 0.211795 75.3148C0.105284 75.6272 0.0613552 75.9575 0.0825181 76.2869C0.103681 76.6163 0.189521 76.9383 0.335135 77.2345C0.480749 77.5307 0.683286 77.7953 0.931178 78.0133C1.17907 78.2312 1.46746 78.3982 1.77989 78.5046L19.8081 84.6485C20.0692 84.7378 20.3432 84.7834 20.6191 84.7834C21.1437 84.7831 21.6551 84.6188 22.0817 84.3134C22.5083 84.0079 22.8286 83.5767 22.9979 83.0801C23.2129 82.4492 23.1685 81.7587 22.8744 81.1605C22.5804 80.5623 22.0607 80.1054 21.4298 79.8903ZM106.724 49.2378C106.093 49.4529 105.573 49.9098 105.279 50.508C104.985 51.1062 104.941 51.7967 105.156 52.4276C105.325 52.9243 105.645 53.3555 106.072 53.6609C106.499 53.9664 107.01 54.1307 107.535 54.1309C107.811 54.1307 108.085 54.0851 108.346 53.996L126.374 47.8521C127.005 47.637 127.524 47.1801 127.819 46.5819C128.113 45.9837 128.157 45.2932 127.942 44.6623C127.494 43.3483 126.065 42.6468 124.752 43.0939L119.061 45.0334V39.414C119.061 38.0257 117.936 36.9006 116.548 36.9006C115.16 36.9006 114.034 38.0257 114.034 39.414V46.7465L106.724 49.2378ZM124.752 81.4098L106.724 87.5538C106.093 87.7688 105.573 88.2257 105.279 88.8239C104.985 89.4221 104.941 90.1126 105.156 90.7436C105.325 91.2402 105.645 91.6714 106.072 91.9769C106.499 92.2823 107.01 92.4466 107.535 92.4468C107.811 92.4466 108.085 92.4011 108.346 92.3119L126.374 86.168C127.005 85.953 127.524 85.4961 127.819 84.8979C128.113 84.2997 128.157 83.6092 127.942 82.9782C127.494 81.6643 126.065 80.9625 124.752 81.4098ZM124.752 89.073L106.724 95.2169C106.093 95.432 105.573 95.8888 105.279 96.487C104.985 97.0852 104.941 97.7758 105.156 98.4067C105.325 98.9033 105.645 99.3346 106.072 99.64C106.499 99.9455 107.01 100.11 107.535 100.11C107.811 100.11 108.085 100.064 108.346 99.9751L126.374 93.8312C127.005 93.6161 127.524 93.1592 127.819 92.561C128.113 91.9628 128.157 91.2723 127.942 90.6414C127.494 89.3271 126.065 88.6253 124.752 89.073ZM124.752 96.7361L106.724 102.88C106.093 103.095 105.573 103.552 105.279 104.15C104.985 104.748 104.941 105.439 105.156 106.07C105.325 106.566 105.645 106.998 106.072 107.303C106.499 107.609 107.01 107.773 107.535 107.773C107.811 107.773 108.085 107.727 108.346 107.638L114.034 105.7V110.991C114.034 112.379 115.16 113.504 116.548 113.504C117.936 113.504 119.061 112.379 119.061 110.991V103.986L126.374 101.494C127.005 101.279 127.524 100.822 127.819 100.224C128.113 99.6259 128.157 98.9354 127.942 98.3045C127.494 96.9905 126.065 96.2887 124.752 96.7361ZM124.752 50.757L106.724 56.9009C106.093 57.116 105.573 57.5729 105.279 58.1711C104.985 58.7693 104.941 59.4598 105.156 60.0908C105.325 60.5874 105.645 61.0186 106.072 61.3241C106.499 61.6295 107.01 61.7938 107.535 61.794C107.811 61.7938 108.085 61.7482 108.346 61.6591L126.374 55.5152C127.005 55.3001 127.524 54.8433 127.819 54.2451C128.113 53.6469 128.157 52.9563 127.942 52.3254C127.494 51.0114 126.065 50.3094 124.752 50.757ZM124.752 58.4202L106.724 64.5641C106.093 64.7791 105.573 65.236 105.279 65.8342C104.985 66.4324 104.941 67.1229 105.156 67.7539C105.325 68.2505 105.645 68.6818 106.072 68.9872C106.499 69.2926 107.01 69.457 107.535 69.4571C107.811 69.4569 108.085 69.4114 108.346 69.3223L126.374 63.1783C127.005 62.9633 127.524 62.5064 127.819 61.9082C128.113 61.31 128.157 60.6195 127.942 59.9885C127.494 58.6746 126.065 57.9728 124.752 58.4202ZM124.752 66.0833L106.724 72.2272C106.093 72.4423 105.573 72.8992 105.279 73.4974C104.985 74.0956 104.941 74.7861 105.156 75.417C105.325 75.9136 105.645 76.3449 106.072 76.6503C106.499 76.9558 107.01 77.1201 107.535 77.1203C107.811 77.1201 108.085 77.0745 108.346 76.9854L126.374 70.8415C127.005 70.6264 127.524 70.1695 127.819 69.5713C128.113 68.9731 128.157 68.2826 127.942 67.6517C127.494 66.3377 126.065 65.6362 124.752 66.0833ZM124.752 73.7464L106.724 79.8903C106.093 80.1054 105.573 80.5623 105.279 81.1605C104.985 81.7587 104.941 82.4492 105.156 83.0801C105.325 83.5768 105.645 84.008 106.072 84.3135C106.499 84.6189 107.01 84.7832 107.535 84.7834C107.811 84.7832 108.085 84.7376 108.346 84.6485L126.374 78.5046C127.005 78.2895 127.524 77.8327 127.819 77.2345C128.113 76.6363 128.157 75.9457 127.942 75.3148C127.494 74.0008 126.065 73.299 124.752 73.7464ZM102.074 30.0923H107.364C108.752 30.0923 109.877 28.9671 109.877 27.5789C109.877 26.1906 108.752 25.0654 107.364 25.0654H100.361L97.8695 17.755C97.7655 17.4396 97.5999 17.1479 97.3825 16.8969C97.165 16.6458 96.9 16.4404 96.6026 16.2924C96.3053 16.1444 95.9816 16.0568 95.6502 16.0346C95.3188 16.0125 94.9863 16.0563 94.6719 16.1634C94.3575 16.2705 94.0675 16.4389 93.8186 16.6588C93.5697 16.8787 93.3668 17.1458 93.2217 17.4446C93.0766 17.7433 92.9922 18.0679 92.9733 18.3995C92.9544 18.7311 93.0014 19.0631 93.1116 19.3765L99.2555 37.4046C99.4247 37.9013 99.7451 38.3325 100.172 38.638C100.598 38.9434 101.11 39.1077 101.634 39.1079C102.034 39.1079 102.428 39.0126 102.784 38.8299C103.139 38.6471 103.446 38.3822 103.679 38.0571C103.911 37.7321 104.063 37.3562 104.121 36.9607C104.179 36.5652 104.142 36.1616 104.013 35.7832L102.074 30.0923ZM91.5921 37.4046C91.7613 37.9013 92.0817 38.3325 92.5082 38.638C92.9348 38.9434 93.4463 39.1077 93.9709 39.1079C94.3707 39.1079 94.7647 39.0126 95.1202 38.8299C95.4757 38.6471 95.7825 38.3822 96.0151 38.0571C96.2478 37.7321 96.3995 37.3562 96.4577 36.9607C96.516 36.5652 96.4791 36.1616 96.35 35.7832L90.2061 17.755C90.1021 17.4396 89.9365 17.1479 89.7191 16.8969C89.5016 16.6458 89.2366 16.4404 88.9392 16.2924C88.6419 16.1444 88.3182 16.0568 87.9868 16.0346C87.6554 16.0125 87.3229 16.0563 87.0085 16.1634C86.6941 16.2705 86.4041 16.4389 86.1552 16.6588C85.9062 16.8787 85.7034 17.1458 85.5583 17.4446C85.4132 17.7433 85.3288 18.0679 85.3099 18.3995C85.291 18.7311 85.338 19.0631 85.4482 19.3765L91.5921 37.4046ZM83.9287 37.4046C84.0979 37.9013 84.4182 38.3325 84.8448 38.638C85.2714 38.9434 85.7829 39.1077 86.3075 39.1079C86.7073 39.1079 87.1013 39.0126 87.4568 38.8299C87.8123 38.6471 88.1191 38.3822 88.3517 38.0571C88.5844 37.7321 88.7361 37.3562 88.7943 36.9607C88.8526 36.5652 88.8156 36.1616 88.6866 35.7832L82.5427 17.755C82.4386 17.4396 82.2731 17.1479 82.0557 16.8969C81.8382 16.6458 81.5731 16.4404 81.2758 16.2924C80.9785 16.1444 80.6547 16.0568 80.3233 16.0346C79.992 16.0125 79.6595 16.0563 79.3451 16.1634C79.0307 16.2705 78.7407 16.4389 78.4917 16.6588C78.2428 16.8787 78.04 17.1458 77.8949 17.4446C77.7498 17.7433 77.6654 18.0679 77.6465 18.3995C77.6276 18.7311 77.6746 19.0631 77.7848 19.3765L83.9287 37.4046ZM45.6131 37.4046C45.7822 37.9013 46.1026 38.3325 46.5292 38.638C46.9558 38.9434 47.4672 39.1077 47.9919 39.1079C48.3916 39.1079 48.7856 39.0126 49.1411 38.8299C49.4966 38.6471 49.8034 38.3822 50.0361 38.0571C50.2687 37.7321 50.4204 37.3562 50.4787 36.9607C50.5369 36.5652 50.5 36.1616 50.371 35.7832L44.227 17.755C44.123 17.4396 43.9575 17.1479 43.74 16.8969C43.5225 16.6458 43.2575 16.4404 42.9601 16.2924C42.6628 16.1444 42.3391 16.0568 42.0077 16.0346C41.6763 16.0125 41.3438 16.0563 41.0294 16.1634C40.715 16.2705 40.425 16.4389 40.1761 16.6588C39.9272 16.8787 39.7243 17.1458 39.5792 17.4446C39.4341 17.7433 39.3497 18.0679 39.3308 18.3995C39.3119 18.7311 39.3589 19.0631 39.4691 19.3765L45.6131 37.4046ZM37.9499 37.4046C38.1191 37.9013 38.4395 38.3325 38.866 38.638C39.2926 38.9434 39.8041 39.1077 40.3287 39.1079C40.7285 39.1079 41.1225 39.0126 41.478 38.8299C41.8335 38.6471 42.1403 38.3822 42.3729 38.0571C42.6056 37.7321 42.7573 37.3562 42.8155 36.9607C42.8738 36.5652 42.8369 36.1616 42.7078 35.7832L36.5639 17.755C36.4599 17.4396 36.2943 17.1479 36.0769 16.8969C35.8594 16.6458 35.5944 16.4404 35.297 16.2924C34.9997 16.1444 34.676 16.0568 34.3446 16.0346C34.0132 16.0125 33.6807 16.0563 33.3663 16.1634C33.0519 16.2705 32.7619 16.4389 32.513 16.6588C32.264 16.8787 32.0612 17.1458 31.9161 17.4446C31.771 17.7433 31.6866 18.0679 31.6677 18.3995C31.6488 18.7311 31.6958 19.0631 31.806 19.3765L37.9499 37.4046ZM76.2659 37.4046C76.4351 37.9013 76.7554 38.3325 77.182 38.638C77.6086 38.9434 78.12 39.1077 78.6447 39.1079C79.0444 39.1079 79.4384 39.0126 79.7939 38.8299C80.1494 38.6471 80.4563 38.3822 80.6889 38.0571C80.9215 37.7321 81.0732 37.3562 81.1315 36.9607C81.1897 36.5652 81.1528 36.1616 81.0238 35.7832L74.8799 17.755C74.7758 17.4396 74.6103 17.1479 74.3928 16.8969C74.1753 16.6458 73.9103 16.4404 73.613 16.2924C73.3156 16.1444 72.9919 16.0568 72.6605 16.0346C72.3291 16.0125 71.9966 16.0563 71.6822 16.1634C71.3678 16.2705 71.0778 16.4389 70.8289 16.6588C70.58 16.8787 70.3771 17.1458 70.232 17.4446C70.0869 17.7433 70.0025 18.0679 69.9836 18.3995C69.9647 18.7311 70.0117 19.0631 70.122 19.3765L76.2659 37.4046ZM68.6025 37.4046C68.7716 37.9013 69.092 38.3325 69.5186 38.638C69.9451 38.9434 70.4566 39.1077 70.9813 39.1079C71.381 39.1079 71.775 39.0126 72.1305 38.8299C72.486 38.6471 72.7928 38.3822 73.0255 38.0571C73.2581 37.7321 73.4098 37.3562 73.4681 36.9607C73.5263 36.5652 73.4894 36.1616 73.3603 35.7832L67.2164 17.755C67.1124 17.4396 66.9468 17.1479 66.7294 16.8969C66.5119 16.6458 66.2469 16.4404 65.9495 16.2924C65.6522 16.1444 65.3285 16.0568 64.9971 16.0346C64.6657 16.0125 64.3332 16.0563 64.0188 16.1634C63.7044 16.2705 63.4144 16.4389 63.1655 16.6588C62.9166 16.8787 62.7137 17.1458 62.5686 17.4446C62.4235 17.7433 62.3391 18.0679 62.3202 18.3995C62.3013 18.7311 62.3483 19.0631 62.4585 19.3765L68.6025 37.4046ZM60.9393 37.4046C61.1085 37.9013 61.4288 38.3325 61.8554 38.638C62.282 38.9434 62.7935 39.1077 63.3181 39.1079C63.7179 39.1079 64.1119 39.0126 64.4674 38.8299C64.8229 38.6471 65.1297 38.3822 65.3623 38.0571C65.595 37.7321 65.7467 37.3562 65.8049 36.9607C65.8632 36.5652 65.8262 36.1616 65.6972 35.7832L59.5533 17.755C59.4493 17.4396 59.2837 17.1479 59.0663 16.8969C58.8488 16.6458 58.5837 16.4404 58.2864 16.2924C57.9891 16.1444 57.6653 16.0568 57.334 16.0346C57.0026 16.0125 56.6701 16.0563 56.3557 16.1634C56.0413 16.2705 55.7513 16.4389 55.5024 16.6588C55.2534 16.8787 55.0506 17.1458 54.9055 17.4446C54.7604 17.7433 54.676 18.0679 54.6571 18.3995C54.6382 18.7311 54.6852 19.0631 54.7954 19.3765L60.9393 37.4046ZM53.2759 37.4046C53.4451 37.9013 53.7654 38.3325 54.192 38.638C54.6186 38.9434 55.1301 39.1077 55.6547 39.1079C56.0545 39.1079 56.4484 39.0126 56.804 38.8299C57.1595 38.6471 57.4663 38.3822 57.6989 38.0571C57.9315 37.7321 58.0833 37.3562 58.1415 36.9607C58.1998 36.5652 58.1628 36.1616 58.0338 35.7832L51.8899 17.755C51.7858 17.4396 51.6203 17.1479 51.4028 16.8969C51.1854 16.6458 50.9203 16.4404 50.623 16.2924C50.3257 16.1444 50.0019 16.0568 49.6705 16.0346C49.3391 16.0125 49.0066 16.0563 48.6923 16.1634C48.3779 16.2705 48.0879 16.4389 47.8389 16.6588C47.59 16.8787 47.3872 17.1458 47.2421 17.4446C47.097 17.7433 47.0126 18.0679 46.9937 18.3995C46.9748 18.7311 47.0218 19.0631 47.132 19.3765L53.2759 37.4046ZM20.7903 30.0923H27.7943L30.2862 37.4046C30.4554 37.9013 30.7758 38.3325 31.2023 38.638C31.6289 38.9434 32.1404 39.1077 32.665 39.1079C33.0648 39.1079 33.4588 39.0126 33.8143 38.8299C34.1698 38.6471 34.4766 38.3822 34.7092 38.0571C34.9419 37.7321 35.0936 37.3562 35.1518 36.9607C35.2101 36.5652 35.1732 36.1616 35.0441 35.7832L28.9002 17.755C28.7962 17.4396 28.6306 17.1479 28.4132 16.8969C28.1957 16.6458 27.9307 16.4404 27.6333 16.2924C27.336 16.1444 27.0123 16.0568 26.6809 16.0346C26.3495 16.0125 26.017 16.0563 25.7026 16.1634C25.3882 16.2705 25.0982 16.4389 24.8493 16.6588C24.6004 16.8787 24.3975 17.1458 24.2524 17.4446C24.1073 17.7433 24.0229 18.0679 24.004 18.3995C23.9851 18.7311 24.0321 19.0631 24.1423 19.3765L26.081 25.0654H20.7903C20.1237 25.0654 19.4844 25.3302 19.013 25.8016C18.5417 26.273 18.2768 26.9123 18.2768 27.5789C18.2768 28.2455 18.5417 28.8848 19.013 29.3561C19.4844 29.8275 20.1237 30.0923 20.7903 30.0923Z" fill="black"/>
</g>
<defs>
<clipPath id="clip0_95_46">
<rect width="128" height="128" fill="white" transform="translate(0.0771484 0.777832)"/>
</clipPath>
</defs>
</svg>
