<svg width="129" height="129" viewBox="0 0 129 129" fill="none" xmlns="http://www.w3.org/2000/svg">
<g clip-path="url(#clip0_169_144)">
<path d="M48.0356 103.887V73.3867C48.0356 71.3157 46.3566 69.6367 44.2856 69.6367C42.2146 69.6367 40.5356 71.3157 40.5356 73.3867V103.887C40.5356 105.958 42.2146 107.637 44.2856 107.637C46.3566 107.637 48.0356 105.958 48.0356 103.887ZM61.6711 103.887V73.3867C61.6711 71.3157 59.9921 69.6367 57.9211 69.6367C55.8501 69.6367 54.1711 71.3157 54.1711 73.3867V103.887C54.1711 105.958 55.8501 107.637 57.9211 107.637C59.9921 107.637 61.6711 105.958 61.6711 103.887ZM75.3069 103.887V73.3867C75.3069 71.3157 73.6279 69.6367 71.5569 69.6367C69.4859 69.6367 67.8069 71.3157 67.8069 73.3867V103.887C67.8069 105.958 69.4859 107.637 71.5569 107.637C73.6279 107.637 75.3069 105.958 75.3069 103.887ZM88.9424 103.887V73.3867C88.9424 71.3157 87.2634 69.6367 85.1924 69.6367C83.1214 69.6367 81.4424 71.3157 81.4424 73.3867V103.887C81.4424 105.958 83.1214 107.637 85.1924 107.637C87.2636 107.637 88.9424 105.958 88.9424 103.887Z" fill="black"/>
<path d="M3.23926 106.3L3.23926 70.9733H16.7393L16.7393 106.3H3.23926Z" stroke="black" stroke-width="5" stroke-miterlimit="10" stroke-linecap="round" stroke-linejoin="round"/>
<path d="M112.739 106.3V70.9733H126.24V106.3H112.739Z" stroke="black" stroke-width="5" stroke-miterlimit="10" stroke-linecap="round" stroke-linejoin="round"/>
<path d="M30.5358 120.288V56.9852M98.9425 56.9852V120.288M64.7393 7.63672C63.8304 9.45457 63.3572 11.4591 63.3572 13.4915C63.3572 15.5239 63.8304 17.5284 64.7393 19.3462C65.6482 21.1641 66.1213 23.1686 66.1213 25.201C66.1213 27.2334 65.6482 29.2379 64.7393 31.0557C63.8304 32.8736 63.3572 34.8781 63.3572 36.9105C63.3572 38.9429 63.8304 40.9474 64.7393 42.7652M86.5748 11.5125C85.8664 12.9292 85.4976 14.4914 85.4976 16.0753C85.4976 17.6593 85.8664 19.2215 86.5748 20.6382C87.2832 22.0549 87.652 23.6171 87.652 25.2011C87.652 26.785 87.2832 28.3473 86.5748 29.764C85.8664 31.1807 85.4976 32.7429 85.4976 34.3268C85.4976 35.9108 85.8664 37.473 86.5748 38.8897M42.9163 11.5125C42.2079 12.9292 41.8391 14.4914 41.8391 16.0753C41.8391 17.6593 42.2079 19.2215 42.9163 20.6382C43.6247 22.0549 43.9935 23.6171 43.9935 25.2011C43.9935 26.785 43.6247 28.3473 42.9163 29.764C42.2079 31.1807 41.8391 32.7429 41.8391 34.3268C41.8391 35.9108 42.2079 37.473 42.9163 38.8897M98.9425 56.6367H30.5358L16.7393 70.9732V106.3L30.5358 120.637H98.9425L112.739 106.3V70.9732L98.9425 56.6367Z" stroke="black" stroke-width="5" stroke-miterlimit="10" stroke-linecap="round" stroke-linejoin="round"/>
</g>
<defs>
<clipPath id="clip0_169_144">
<rect width="128" height="128" fill="white" transform="translate(0.739258 0.136719)"/>
</clipPath>
</defs>
</svg>
