<svg width="129" height="129" viewBox="0 0 129 129" fill="none" xmlns="http://www.w3.org/2000/svg">
<path d="M107.166 21.7118C101.606 16.0848 94.9896 11.6125 87.6956 8.55223C80.4016 5.49198 72.5745 3.90417 64.6646 3.88016C56.7546 3.85615 48.918 5.39641 41.6056 8.41233C34.2931 11.4282 27.6492 15.8603 22.056 21.4535C16.4628 27.0467 12.0308 33.6906 9.01486 41.003C5.99895 48.3155 4.45869 56.1521 4.4827 64.062C4.50671 71.9719 6.09452 79.7991 9.15477 87.0931C12.215 94.3871 16.6873 101.004 22.3144 106.563C27.8735 112.19 34.4904 116.662 41.7844 119.723C49.0784 122.783 56.9055 124.371 64.8154 124.395C72.7254 124.419 80.562 122.879 87.8744 119.863C95.1869 116.847 101.831 112.415 107.424 106.821C113.017 101.228 117.449 94.5843 120.465 87.2719C123.481 79.9594 125.021 72.1228 124.997 64.2129C124.973 56.303 123.385 48.4759 120.325 41.1819C117.265 33.8879 112.793 27.271 107.166 21.7118ZM120.157 72.2543L104.722 62.9938C104.565 57.2529 103.164 51.6144 100.618 46.4668L118.374 47.9468C119.948 53.1993 120.745 58.6537 120.739 64.1368C120.74 66.8531 120.545 69.5659 120.157 72.2543ZM64.7394 100.137C44.8894 100.137 28.7394 83.9868 28.7394 64.1368C28.7394 44.2868 44.8894 28.1368 64.7394 28.1368C84.5894 28.1368 100.739 44.2868 100.739 64.1368C100.739 83.9868 84.5894 100.137 64.7394 100.137ZM61.2969 103.987L52.4186 118.785C44.2326 116.955 36.5687 113.291 30.0049 108.068L45.7434 99.3306C50.5518 101.937 55.847 103.523 61.2969 103.987ZM24.8894 60.6943L10.0914 51.8161C11.9212 43.6301 15.5854 35.9663 20.8079 29.4023L29.5454 45.1408C26.9386 49.9493 25.3535 55.2445 24.8894 60.6943ZM68.1819 24.2868L77.0601 9.48908C85.2461 11.3189 92.9099 14.9831 99.4739 20.2056L83.7354 28.9431C78.9269 26.3363 73.6317 24.751 68.1819 24.2868ZM104.589 67.5793L119.387 76.4576C117.557 84.6436 113.893 92.3075 108.671 98.8713L99.9331 83.1328C102.54 78.3244 104.125 73.0292 104.589 67.5793ZM116.952 43.8143L98.2041 42.2518C95.4018 37.9826 91.8139 34.2846 87.6314 31.3546L102.712 22.9823C103.262 23.4901 103.805 24.0073 104.337 24.5388C109.836 30.0178 114.132 36.5825 116.952 43.8143ZM72.8569 8.71908L63.5964 24.1541C58.4759 24.2949 53.431 25.4244 48.7394 27.4803V10.4468C53.9336 8.91001 59.3226 8.13197 64.7394 8.13683C67.4556 8.13655 70.1684 8.33113 72.8569 8.71908ZM44.7394 11.8001V29.5063C39.6769 32.4446 35.315 36.4501 31.9571 41.2446L23.5849 26.1636C24.0926 25.6136 24.6099 25.0711 25.1414 24.5386C30.7024 18.9577 37.3814 14.6164 44.7394 11.8001ZM9.32162 56.0193L24.7566 65.2798C24.907 70.7488 26.1851 76.1278 28.5109 81.0798L11.2479 80.7896C9.57959 75.3963 8.73392 69.7823 8.73937 64.1368C8.73909 61.4206 8.93367 58.7078 9.32162 56.0193ZM12.6686 84.8151L30.6981 85.1181C33.5762 89.7668 37.3697 93.7815 41.8481 96.9181L26.7671 105.29C26.2171 104.783 25.6746 104.265 25.1421 103.734C19.7358 98.3457 15.4907 91.9071 12.6686 84.8151ZM56.6219 119.555L65.8824 104.12C71.0028 103.979 76.0477 102.849 80.7394 100.793V117.827C75.5452 119.364 70.1561 120.142 64.7394 120.137C62.0231 120.137 59.3103 119.943 56.6219 119.555ZM84.7394 116.474V98.7673C89.8019 95.8291 94.1637 91.8235 97.5216 87.0291L105.894 102.11C105.386 102.66 104.869 103.203 104.337 103.735C98.7763 109.316 92.0974 113.657 84.7394 116.474Z" fill="black"/>
<path d="M64.7393 32.1367C58.4103 32.1367 52.2234 34.0135 46.961 37.5297C41.6987 41.0459 37.5971 46.0436 35.1751 51.8909C32.7531 57.7381 32.1194 64.1722 33.3541 70.3796C34.5889 76.587 37.6366 82.2889 42.1119 86.7641C46.5871 91.2394 52.289 94.2871 58.4964 95.5219C64.7038 96.7566 71.1379 96.1229 76.9851 93.7009C82.8324 91.2789 87.8301 87.1773 91.3463 81.915C94.8625 76.6526 96.7393 70.4657 96.7393 64.1367C96.7296 55.6528 93.3551 47.519 87.356 41.52C81.3569 35.5209 73.2232 32.1464 64.7393 32.1367ZM64.7393 92.1367C59.2014 92.1367 53.7879 90.4945 49.1833 87.4179C44.5787 84.3412 40.9899 79.9682 38.8706 74.8519C36.7514 69.7355 36.1969 64.1057 37.2773 58.6742C38.3577 53.2427 41.0244 48.2536 44.9403 44.3377C48.8562 40.4219 53.8453 37.7551 59.2767 36.6747C64.7082 35.5943 70.3381 36.1488 75.4544 38.2681C80.5707 40.3873 84.9437 43.9762 88.0204 48.5808C91.0971 53.1853 92.7393 58.5988 92.7393 64.1367C92.7309 71.5602 89.7782 78.6772 84.529 83.9264C79.2798 89.1756 72.1628 92.1283 64.7393 92.1367Z" fill="black"/>
<path d="M64.7393 48.1367C61.5748 48.1367 58.4813 49.0751 55.8501 50.8332C53.219 52.5913 51.1682 55.0902 49.9572 58.0138C48.7462 60.9374 48.4293 64.1545 49.0467 67.2582C49.6641 70.3619 51.1879 73.2128 53.4256 75.4504C55.6632 77.6881 58.5141 79.2119 61.6178 79.8293C64.7215 80.4466 67.9386 80.1298 70.8622 78.9188C73.7858 77.7078 76.2847 75.657 78.0428 73.0258C79.8009 70.3947 80.7393 67.3012 80.7393 64.1367C80.7345 59.8947 79.0473 55.8278 76.0477 52.8283C73.0482 49.8287 68.9813 48.1415 64.7393 48.1367ZM64.7393 76.1367C62.3659 76.1367 60.0458 75.4329 58.0724 74.1144C56.099 72.7958 54.561 70.9216 53.6527 68.7289C52.7445 66.5362 52.5068 64.1234 52.9698 61.7956C53.4329 59.4679 54.5758 57.3297 56.254 55.6514C57.9322 53.9732 60.0704 52.8303 62.3982 52.3673C64.726 51.9043 67.1388 52.1419 69.3315 53.0502C71.5242 53.9584 73.3983 55.4965 74.7169 57.4699C76.0355 59.4433 76.7393 61.7633 76.7393 64.1367C76.7358 67.3182 75.4704 70.3684 73.2207 72.6181C70.971 74.8678 67.9208 76.1332 64.7393 76.1367Z" fill="black"/>
<path d="M72.7504 59.5101C72.596 59.2426 72.3816 59.0145 72.1243 58.8437C71.8669 58.6729 71.5734 58.564 71.2669 58.5256L68.1992 58.1416L66.3337 55.6791C66.1472 55.4329 65.9062 55.2332 65.6296 55.0958C65.353 54.9583 65.0483 54.8867 64.7394 54.8867C64.4305 54.8867 64.1259 54.9583 63.8493 55.0958C63.5727 55.2332 63.3317 55.4329 63.1452 55.6791L61.2797 58.1419L58.2122 58.5256C57.9056 58.564 57.6121 58.6728 57.3547 58.8436C57.0973 59.0145 56.8829 59.2426 56.7284 59.5101C56.574 59.7777 56.4836 60.0774 56.4643 60.3857C56.4451 60.6941 56.4976 61.0027 56.6177 61.2874L57.8189 64.1374L56.6177 66.9874C56.4976 67.272 56.4451 67.5806 56.4643 67.8889C56.4835 68.1973 56.5739 68.497 56.7283 68.7645C56.8828 69.0321 57.0971 69.2602 57.3545 69.431C57.6119 69.6019 57.9054 69.7107 58.2119 69.7491L61.2797 70.1331L63.1452 72.5956C63.3317 72.8418 63.5727 73.0415 63.8493 73.179C64.1259 73.3165 64.4305 73.388 64.7394 73.388C65.0483 73.388 65.353 73.3165 65.6296 73.179C65.9062 73.0415 66.1472 72.8418 66.3337 72.5956L68.1992 70.1329L71.2667 69.7491C71.5732 69.7108 71.8667 69.6019 72.1242 69.4311C72.3816 69.2603 72.5959 69.0321 72.7504 68.7646C72.9049 68.497 72.9953 68.1973 73.0145 67.889C73.0337 67.5806 72.9812 67.272 72.8612 66.9874L71.6599 64.1366L72.8612 61.2866C72.9811 61.0021 73.0335 60.6936 73.0143 60.3854C72.9951 60.0772 72.9048 59.7776 72.7504 59.5101ZM67.6467 64.9136L68.1497 66.1064L66.8657 66.2669C66.6008 66.3 66.3452 66.3859 66.1141 66.5194C65.8829 66.6529 65.6808 66.8313 65.5197 67.0441L64.7394 68.0741L63.9592 67.0444C63.7981 66.8316 63.596 66.6532 63.3649 66.5197C63.1338 66.3862 62.8783 66.3003 62.6134 66.2671L61.3292 66.1066L61.8322 64.9136C61.936 64.6677 61.9895 64.4035 61.9895 64.1366C61.9895 63.8697 61.936 63.6055 61.8322 63.3596L61.3292 62.1669L62.6132 62.0064C62.878 61.9732 63.1336 61.8873 63.3648 61.7538C63.5959 61.6204 63.798 61.4419 63.9592 61.2291L64.7394 60.1991L65.5197 61.2289C65.6808 61.4417 65.8828 61.6201 66.114 61.7536C66.3451 61.887 66.6006 61.9729 66.8654 62.0061L68.1497 62.1666L67.6467 63.3596C67.5428 63.6055 67.4894 63.8697 67.4894 64.1366C67.4894 64.4035 67.5428 64.6677 67.6467 64.9136ZM54.9202 43.2536L56.9192 39.2554L60.4952 41.0434L58.4962 45.0416L54.9202 43.2536ZM60.9184 43.2559L62.9174 39.2576L66.4934 41.0456L64.4944 45.0439L60.9184 43.2559ZM66.9169 43.2584L68.9159 39.2601L72.4919 41.0481L70.4929 45.0464L66.9169 43.2584ZM38.6387 63.8904L41.4464 61.0426L44.6307 64.1819L41.8227 67.0296L38.6387 63.8904ZM40.4962 58.1829L43.3039 55.3351L46.4882 58.4744L43.6802 61.3221L40.4962 58.1829ZM42.3542 52.4706L45.1622 49.6226L48.3462 52.7619L45.5382 55.6099L42.3542 52.4706ZM54.6152 85.3241L58.5864 83.2624L60.4304 86.8144L56.4592 88.8761L54.6152 85.3241ZM49.7544 81.8029L53.7259 79.7411L55.5699 83.2931L51.5987 85.3549L49.7544 81.8029ZM44.8974 78.2756L48.8687 76.2139L50.7127 79.7659L46.7414 81.8276L44.8974 78.2756ZM80.9609 75.9021L84.9049 75.2461L85.6384 79.6556L81.6944 80.3116L80.9609 75.9021ZM76.1097 79.4279L80.0537 78.7719L80.7872 83.1814L76.8432 83.8374L76.1097 79.4279ZM71.2579 82.9529L75.2019 82.2969L75.9354 86.7064L71.9914 87.3624L71.2579 82.9529ZM81.0037 52.3166L81.5999 48.3604L86.0224 49.0266L85.4267 52.9829L81.0037 52.3166ZM82.8589 58.0236L83.4552 54.0674L87.8782 54.7336L87.2822 58.6899L82.8589 58.0236ZM84.7144 63.7304L85.3107 59.7741L89.7337 60.4406L89.1377 64.3969L84.7144 63.7304Z" fill="black"/>
<path d="M58.7393 18.1367C59.8438 18.1367 60.7393 17.2413 60.7393 16.1367C60.7393 15.0321 59.8438 14.1367 58.7393 14.1367C57.6347 14.1367 56.7393 15.0321 56.7393 16.1367C56.7393 17.2413 57.6347 18.1367 58.7393 18.1367Z" fill="black"/>
<path d="M37.4831 26.0876C37.7691 25.0207 37.1362 23.9239 36.0693 23.6379C35.0024 23.3518 33.9056 23.9848 33.6195 25.0516C33.3335 26.1185 33.9664 27.2153 35.0333 27.5014C36.1002 27.7874 37.197 27.1545 37.4831 26.0876Z" fill="black"/>
<path d="M20.6969 47.2651C21.7639 46.9796 22.3975 45.8831 22.112 44.8161C21.8265 43.749 20.73 43.1155 19.663 43.401C18.596 43.6865 17.9624 44.783 18.2479 45.85C18.5334 46.917 19.6299 47.5506 20.6969 47.2651Z" fill="black"/>
<path d="M16.7393 72.1367C17.8438 72.1367 18.7393 71.2413 18.7393 70.1367C18.7393 69.0321 17.8438 68.1367 16.7393 68.1367C15.6347 68.1367 14.7393 69.0321 14.7393 70.1367C14.7393 71.2413 15.6347 72.1367 16.7393 72.1367Z" fill="black"/>
<path d="M28.1134 93.8659C28.3995 92.799 27.7665 91.7022 26.6996 91.4162C25.6328 91.1301 24.536 91.7631 24.2499 92.83C23.9638 93.8968 24.5968 94.9936 25.6637 95.2797C26.7306 95.5658 27.8274 94.9328 28.1134 93.8659Z" fill="black"/>
<path d="M44.9357 110.438C45.2783 110.636 45.6718 110.728 46.0665 110.702C46.4612 110.676 46.8394 110.534 47.1532 110.293C47.467 110.052 47.7023 109.723 47.8295 109.349C47.9566 108.974 47.9698 108.57 47.8674 108.188C47.765 107.806 47.5515 107.463 47.2541 107.202C46.9567 106.941 46.5886 106.775 46.1965 106.723C45.8043 106.672 45.4056 106.737 45.0508 106.912C44.6961 107.087 44.4012 107.364 44.2034 107.706C44.0721 107.934 43.9869 108.185 43.9526 108.445C43.9184 108.706 43.9357 108.97 44.0037 109.224C44.0717 109.478 44.189 109.715 44.3489 109.924C44.5088 110.132 44.7082 110.307 44.9357 110.438Z" fill="black"/>
<path d="M70.7393 114.137C71.8438 114.137 72.7393 113.241 72.7393 112.137C72.7393 111.032 71.8438 110.137 70.7393 110.137C69.6347 110.137 68.7393 111.032 68.7393 112.137C68.7393 113.241 69.6347 114.137 70.7393 114.137Z" fill="black"/>
<path d="M92.9356 100.974C92.593 101.172 92.3168 101.467 92.1418 101.821C91.9668 102.176 91.901 102.575 91.9527 102.967C92.0043 103.359 92.1711 103.727 92.4319 104.025C92.6927 104.322 93.0358 104.536 93.4179 104.638C93.8 104.74 94.2039 104.727 94.5785 104.6C94.953 104.473 95.2815 104.237 95.5223 103.924C95.7631 103.61 95.9054 103.232 95.9313 102.837C95.9571 102.442 95.8654 102.049 95.6676 101.706C95.4023 101.247 94.9655 100.911 94.4532 100.774C93.9408 100.637 93.3949 100.709 92.9356 100.974Z" fill="black"/>
<path d="M109.309 84.9404C110.413 84.9404 111.309 84.045 111.309 82.9404C111.309 81.8359 110.413 80.9404 109.309 80.9404C108.204 80.9404 107.309 81.8359 107.309 82.9404C107.309 84.045 108.204 84.9404 109.309 84.9404Z" fill="black"/>
<path d="M112.739 60.1367C113.844 60.1367 114.739 59.2413 114.739 58.1367C114.739 57.0321 113.844 56.1367 112.739 56.1367C111.635 56.1367 110.739 57.0321 110.739 58.1367C110.739 59.2413 111.635 60.1367 112.739 60.1367Z" fill="black"/>
<path d="M103.309 36.9404C104.413 36.9404 105.309 36.045 105.309 34.9404C105.309 33.8359 104.413 32.9404 103.309 32.9404C102.204 32.9404 101.309 33.8359 101.309 34.9404C101.309 36.045 102.204 36.9404 103.309 36.9404Z" fill="black"/>
<path d="M84.07 21.4863C85.137 21.2007 85.7705 20.1043 85.485 19.0373C85.1995 17.9702 84.1031 17.3367 83.036 17.6222C81.969 17.9077 81.3355 19.0042 81.621 20.0712C81.9065 21.1382 83.0029 21.7718 84.07 21.4863Z" fill="black"/>
</svg>
