<svg width="135" height="136" viewBox="0 0 135 136" fill="none" xmlns="http://www.w3.org/2000/svg">
<path d="M96.9072 70.2144C96.9072 70.9554 96.8809 71.6885 96.8325 72.419H78.9797C78.6814 72.419 78.3919 72.5204 78.1588 72.7064C77.9256 72.8924 77.7626 73.1522 77.6964 73.443C77.3676 74.8903 76.8171 76.278 76.0643 77.557C75.9162 77.8083 75.8559 78.1017 75.8927 78.3911C75.9296 78.6804 76.0615 78.9494 76.2677 79.1556L88.9384 91.8231C87.8824 93.0619 86.7381 94.2225 85.5144 95.2958L72.9019 82.6807C72.6907 82.4695 72.4139 82.3363 72.117 82.3032C71.8201 82.2701 71.5208 82.339 71.2682 82.4985C70.0139 83.2921 68.6441 83.8864 67.2077 84.2604C66.9256 84.3337 66.6758 84.4985 66.4975 84.7291C66.3192 84.9596 66.2224 85.2428 66.2224 85.5343V103.463C65.3409 103.533 64.4504 103.569 63.5508 103.57C62.8097 103.57 62.075 103.544 61.3461 103.495V85.6425C61.3461 85.3442 61.2448 85.0547 61.0587 84.8216C60.8727 84.5884 60.6129 84.4254 60.3221 84.3592C58.8748 84.0305 57.4871 83.4799 56.2082 82.727C55.9568 82.5791 55.6634 82.5188 55.374 82.5556C55.0846 82.5925 54.8157 82.7245 54.6095 82.9308L41.9417 95.6012C40.7029 94.5454 39.5423 93.4011 38.4693 92.1772L51.0852 79.5668C51.2965 79.3556 51.4297 79.0789 51.4628 78.782C51.496 78.4851 51.4271 78.1857 51.2676 77.9331C50.474 76.6789 49.8796 75.3093 49.5057 73.8729C49.4325 73.5907 49.2677 73.3409 49.0372 73.1625C48.8066 72.9842 48.5234 72.8874 48.2319 72.8873H30.3033C30.2331 72.0058 30.1974 71.1153 30.1961 70.2157C30.1961 69.4746 30.2225 68.7399 30.2709 68.011H48.1237C48.422 68.011 48.7114 67.9097 48.9446 67.7236C49.1778 67.5376 49.3408 67.2778 49.407 66.987C49.7358 65.5398 50.2863 64.152 51.0391 62.8731C51.1872 62.6217 51.2475 62.3283 51.2107 62.0389C51.1738 61.7496 51.0419 61.4806 50.8356 61.2744L38.1653 48.6066C39.221 47.3678 40.3653 46.2072 41.5893 45.1342L54.2015 57.744C54.4123 57.9552 54.6887 58.0885 54.9852 58.122C55.2818 58.1555 55.5809 58.0872 55.8336 57.9283C57.0891 57.1362 58.4593 56.5426 59.8959 56.1685C60.1781 56.0953 60.4279 55.9304 60.6062 55.6998C60.7845 55.4692 60.8813 55.1859 60.8812 54.8944V36.9661C61.7627 36.8959 62.6534 36.8601 63.5531 36.8587C64.2939 36.8587 65.0286 36.885 65.7578 36.9334V54.7863C65.7578 55.0845 65.8591 55.3739 66.0451 55.6071C66.2311 55.8402 66.4907 56.0033 66.7815 56.0696C68.2288 56.3983 69.6165 56.9489 70.8955 57.7017C71.1469 57.8497 71.4403 57.9099 71.7297 57.8731C72.019 57.8362 72.2879 57.7042 72.4942 57.4979L85.1619 44.8275C86.4003 45.8833 87.5605 47.0273 88.6335 48.2507L76.0211 60.8632C75.8099 61.0741 75.6766 61.3504 75.6431 61.647C75.6097 61.9435 75.6779 62.2427 75.8368 62.4953C76.6289 63.7507 77.2226 65.1209 77.5968 66.5574C77.6701 66.8395 77.835 67.0893 78.0655 67.2676C78.296 67.4459 78.5792 67.5427 78.8707 67.5427H96.7993C96.8702 68.4242 96.9062 69.3148 96.9072 70.2144ZM91.9725 32.2717C92.3281 31.916 92.6078 31.4919 92.7946 31.0249C92.9813 30.5579 93.0713 30.0579 93.059 29.5551C93.0467 29.0523 92.9324 28.5573 92.723 28.1C92.5136 27.6427 92.2135 27.2328 91.8409 26.895C90.3988 25.5824 88.0568 25.684 86.62 27.1205L85.2377 28.5031C84.9586 28.7823 84.6272 29.0039 84.2624 29.155C83.8977 29.3061 83.5067 29.3839 83.1119 29.3839C82.7171 29.3839 82.3261 29.3061 81.9614 29.155C81.5966 29.0039 81.2652 28.7823 80.9861 28.5031L77.8009 25.3179L72.2751 30.8436C72.1533 30.965 72.063 31.1142 72.0119 31.2785C79.8663 32.5937 87.0973 36.3775 92.6554 42.0809C98.2136 47.7843 101.81 55.1105 102.922 62.9963L104.385 64.4588C104.584 64.6583 104.855 64.7703 105.137 64.7703C105.42 64.7703 105.69 64.6583 105.89 64.4588L111.416 58.9331L108.267 55.7842C107.988 55.505 107.766 55.1736 107.615 54.8088C107.464 54.4441 107.386 54.0531 107.386 53.6583C107.386 53.2634 107.464 52.8725 107.615 52.5077C107.766 52.1429 107.988 51.8115 108.267 51.5323L109.75 50.0492C110.105 49.6936 110.385 49.2694 110.572 48.8025C110.758 48.3355 110.848 47.8355 110.836 47.3328C110.824 46.83 110.71 46.335 110.5 45.8778C110.291 45.4205 109.991 45.0106 109.618 44.6728C108.176 43.3605 105.834 43.4618 104.397 44.8983L103.014 46.2806C102.735 46.5599 102.404 46.7814 102.039 46.9325C101.674 47.0837 101.283 47.1615 100.889 47.1615C100.494 47.1615 100.103 47.0837 99.7379 46.9325C99.3731 46.7814 99.0417 46.5599 98.7626 46.2806L90.4894 38.0067C89.9256 37.4428 89.6089 36.6781 89.6089 35.8807C89.6089 35.0834 89.9256 34.3186 90.4894 33.7548L91.9725 32.2717ZM131.157 45.5512L117.809 58.8991C117.451 59.2573 116.964 59.4585 116.457 59.4585C115.95 59.4585 115.464 59.2573 115.105 58.8991L110.129 53.9239C110.095 53.8891 110.067 53.8479 110.048 53.8025C110.029 53.7571 110.02 53.7084 110.02 53.6593C110.02 53.6102 110.029 53.5615 110.048 53.5161C110.067 53.4707 110.095 53.4295 110.129 53.3948L111.612 51.9116C112.501 51.0301 113.107 49.9047 113.356 48.678C113.604 47.4514 113.483 46.1786 113.007 45.0209C112.531 43.8633 111.723 42.8728 110.684 42.175C109.645 41.4772 108.422 41.1034 107.171 41.1011C106.309 41.1033 105.456 41.2754 104.661 41.6078C103.866 41.9401 103.145 42.426 102.538 43.0378L101.155 44.4206C101.12 44.4553 101.079 44.4829 101.034 44.5017C100.988 44.5205 100.94 44.5302 100.89 44.5302C100.841 44.5302 100.793 44.5205 100.747 44.5017C100.702 44.4829 100.661 44.4553 100.626 44.4206L92.3508 36.145C92.2807 36.0749 92.2413 35.9798 92.2413 35.8806C92.2413 35.7814 92.2807 35.6863 92.3508 35.6162L93.8339 34.1331C94.4413 33.5256 94.9191 32.8012 95.2383 32.0036C95.5575 31.2061 95.7114 30.352 95.6907 29.4932C95.6701 28.6344 95.4753 27.7888 95.1182 27.0075C94.761 26.2262 94.249 25.5256 93.613 24.948C92.3808 23.8503 90.7726 23.2701 89.1234 23.3282C87.4741 23.3863 85.9108 24.0782 84.7589 25.26L83.3763 26.6425C83.3417 26.6773 83.3004 26.7049 83.2551 26.7238C83.2097 26.7426 83.161 26.7523 83.1119 26.7523C83.0628 26.7523 83.0141 26.7426 82.9687 26.7238C82.9234 26.7049 82.8822 26.6773 82.8475 26.6425L77.8722 21.6672C77.5141 21.3082 77.3129 20.8218 77.3129 20.3147C77.3129 19.8076 77.5141 19.3212 77.8722 18.9621L91.2202 5.61577C91.5791 5.25757 92.0655 5.0564 92.5726 5.0564C93.0797 5.0564 93.566 5.25757 93.925 5.61577L98.9305 10.6211C99.1774 10.8679 99.5121 11.0066 99.8612 11.0066C100.21 11.0066 100.545 10.8679 100.792 10.6211L103.197 8.21581C103.42 7.99271 103.685 7.81573 103.977 7.69498C104.268 7.57423 104.58 7.51209 104.896 7.51209C105.211 7.51209 105.524 7.57423 105.815 7.69498C106.107 7.81573 106.371 7.99271 106.595 8.21581L128.558 30.1789C129.008 30.6299 129.261 31.2409 129.261 31.8779C129.261 32.5149 129.008 33.1258 128.558 33.5768L126.153 35.9821C125.906 36.2289 125.767 36.5637 125.767 36.9128C125.767 37.2618 125.906 37.5966 126.153 37.8435L131.158 42.849C131.516 43.208 131.716 43.6939 131.716 44.2003C131.716 44.7068 131.515 45.1925 131.157 45.5512ZM103.831 19.9993C103.831 19.3902 103.65 18.7947 103.311 18.2882C102.973 17.7817 102.492 17.3869 101.929 17.1538C101.366 16.9207 100.747 16.8597 100.15 16.9786C99.5523 17.0974 99.0035 17.3907 98.5727 17.8215C98.142 18.2522 97.8487 18.801 97.7298 19.3985C97.611 19.9959 97.672 20.6152 97.9051 21.178C98.1382 21.7407 98.533 22.2218 99.0395 22.5602C99.5459 22.8986 100.141 23.0793 100.751 23.0793C101.567 23.0786 102.35 22.7539 102.928 22.1765C103.505 21.599 103.83 20.816 103.831 19.9993ZM117.771 33.9398C117.771 33.3306 117.59 32.7351 117.252 32.2286C116.913 31.7221 116.432 31.3273 115.869 31.0942C115.307 30.8612 114.687 30.8002 114.09 30.9192C113.492 31.0381 112.943 31.3316 112.513 31.7625C112.082 32.1933 111.789 32.7422 111.67 33.3398C111.551 33.9373 111.613 34.5566 111.846 35.1194C112.079 35.6822 112.474 36.1631 112.981 36.5013C113.488 36.8396 114.083 37.02 114.692 37.0198C115.509 37.0188 116.292 36.6939 116.869 36.1165C117.446 35.5391 117.77 34.7563 117.771 33.9398ZM122.737 57.694C123.603 61.8112 124.04 66.0071 124.04 70.2144C124.04 103.567 96.9057 130.703 63.5521 130.703C30.2354 130.703 3.06299 103.531 3.06299 70.2141C3.06299 36.8613 30.1983 9.72551 63.5518 9.72551C69.4153 9.72052 75.2484 10.5683 80.8679 12.2424L76.0098 17.0994C75.1716 17.9401 74.6953 19.0752 74.6827 20.2622C74.67 21.4493 75.122 22.5942 75.9421 23.4525L70.414 28.9806C69.915 29.482 69.5698 30.1157 69.4192 30.807C69.2686 31.4982 69.319 32.2181 69.5643 32.8816C69.6471 33.1049 69.789 33.3015 69.9747 33.4504C70.1605 33.5994 70.3832 33.6952 70.6191 33.7277C78.1884 34.7781 85.2019 38.2893 90.5784 43.7198C95.9549 49.1503 99.3958 56.1987 100.37 63.7781C100.408 64.0671 100.539 64.3355 100.746 64.5415L103.312 67.2279C103.64 67.5719 104.087 67.7783 104.562 67.8054C105.037 67.8325 105.505 67.6783 105.87 67.374L106.293 67.022L115.197 75.9257C115.429 76.1661 115.741 76.3125 116.075 76.3367C116.408 76.361 116.738 76.2615 117.003 76.0573C117.145 75.9407 117.261 75.7956 117.344 75.6314C117.427 75.4672 117.474 75.2875 117.483 75.1039C117.493 74.9202 117.463 74.7366 117.397 74.565C117.331 74.3933 117.23 74.2374 117.1 74.1072L108.525 65.5318L113.279 60.7934C114.134 61.6303 115.285 62.0962 116.482 62.0901C117.678 62.084 118.824 61.6065 119.671 60.7611L122.737 57.694ZM98.6631 98.0125C98.6631 97.6634 98.5244 97.3286 98.2776 97.0818C98.0307 96.8349 97.6959 96.6963 97.3469 96.6963C96.9978 96.6963 96.663 96.8349 96.4162 97.0818C96.1693 97.3286 96.0306 97.6634 96.0306 98.0125V110.832C96.0306 111.181 96.1693 111.516 96.4162 111.763C96.663 112.01 96.9978 112.149 97.3469 112.149C97.6959 112.149 98.0307 112.01 98.2776 111.763C98.5244 111.516 98.6631 111.181 98.6631 110.832V98.0125ZM67.4447 16.6659L58.3802 25.7304C58.1351 25.9776 57.998 26.3118 57.9987 26.6599C57.9995 27.0079 58.1381 27.3416 58.3842 27.5877C58.6304 27.8338 58.964 27.9724 59.3121 27.9732C59.6601 27.974 59.9943 27.8368 60.2416 27.5918L69.306 18.5273C69.4291 18.4052 69.5269 18.2601 69.5938 18.1002C69.6606 17.9403 69.6952 17.7687 69.6956 17.5954C69.696 17.4221 69.6621 17.2504 69.596 17.0901C69.5298 16.9299 69.4327 16.7844 69.3101 16.6618C69.1876 16.5392 69.042 16.4421 68.8818 16.3759C68.7216 16.3098 68.5499 16.2759 68.3765 16.2763C68.2032 16.2767 68.0317 16.3113 67.8717 16.3781C67.7118 16.445 67.5667 16.5428 67.4447 16.6659ZM37.0699 104.01C37.0695 103.661 36.9307 103.326 36.684 103.079C36.4372 102.833 36.1027 102.694 35.7537 102.693H22.9338C22.5847 102.693 22.25 102.832 22.0031 103.079C21.7563 103.326 21.6176 103.661 21.6176 104.01C21.6176 104.359 21.7563 104.694 22.0031 104.94C22.25 105.187 22.5847 105.326 22.9338 105.326H35.7537C36.1026 105.325 36.4371 105.187 36.6839 104.94C36.9306 104.693 37.0694 104.359 37.0699 104.01V104.01ZM10.0031 66.3215L19.0673 75.386C19.3142 75.6328 19.649 75.7715 19.9981 75.7715C20.3472 75.7715 20.682 75.6327 20.9288 75.3859C21.1757 75.139 21.3143 74.8042 21.3143 74.4551C21.3143 74.106 21.1756 73.7712 20.9287 73.5244L11.8648 64.4601C11.6179 64.2133 11.2831 64.0746 10.934 64.0745C10.5849 64.0745 10.2501 64.2132 10.0032 64.46C9.75637 64.7068 9.61766 65.0416 9.61764 65.3907C9.61761 65.7398 9.75627 66.0747 10.0031 66.3215ZM29.756 28.2809C29.4071 28.2813 29.0725 28.4201 28.8258 28.6669C28.579 28.9136 28.4402 29.2482 28.4398 29.5971V42.417C28.4398 42.7661 28.5785 43.1009 28.8253 43.3477C29.0721 43.5946 29.4069 43.7332 29.756 43.7332C30.1051 43.7332 30.4399 43.5946 30.6867 43.3477C30.9335 43.1009 31.0722 42.7661 31.0722 42.417V29.5971C31.0718 29.2482 30.933 28.9137 30.6863 28.667C30.4396 28.4202 30.1049 28.2814 29.756 28.2809ZM69.1089 113.768C69.1089 113.507 69.0317 113.253 68.8871 113.036C68.7424 112.82 68.5368 112.651 68.2962 112.551C68.0556 112.452 67.7909 112.426 67.5355 112.476C67.2802 112.527 67.0456 112.653 66.8616 112.837L57.7973 121.901C57.5505 122.148 57.4118 122.483 57.4118 122.832C57.4117 123.181 57.5504 123.516 57.7972 123.763C58.0441 124.01 58.3788 124.148 58.728 124.148C59.0771 124.148 59.4119 124.01 59.6587 123.763L68.7232 114.698C68.8459 114.576 68.9431 114.431 69.0093 114.272C69.0755 114.112 69.1094 113.94 69.1089 113.768ZM99.5397 70.2144C99.5397 50.3706 83.3955 34.2262 63.5518 34.2262C55.3352 34.2187 47.3658 37.0365 40.9801 42.2072C40.9241 42.2391 40.8706 42.275 40.8198 42.3146C39.7103 43.2195 38.6554 44.1895 37.6609 45.2195C36.847 46.0632 36.0747 46.946 35.3467 47.8648C35.3181 47.9042 35.2918 47.9452 35.2678 47.9875C30.2704 54.3176 27.5561 62.1493 27.5645 70.2144C27.5645 90.0583 43.7086 106.202 63.5526 106.202C83.3966 106.202 99.5397 90.0583 99.5397 70.2144Z" fill="black"/>
</svg>
