<svg width="129" height="129" viewBox="0 0 129 129" fill="none" xmlns="http://www.w3.org/2000/svg">
<g clip-path="url(#clip0_95_61)">
<path d="M107.606 4.53952H57.7287L57.5813 4.15478C57.1128 2.9405 56.2876 1.89649 55.2144 1.16009C54.1412 0.423685 52.8703 0.0293832 51.5687 0.0290527L22.046 0.0290527C16.4509 0.0290527 11.748 4.46994 11.748 10.0651V117.989C11.748 123.576 16.4468 128.029 22.046 128.029H98.8345C99.427 128.029 100.011 127.885 100.535 127.61C101.06 127.335 101.51 126.936 101.846 126.449C102.183 125.961 102.396 125.399 102.467 124.811C102.539 124.223 102.466 123.626 102.256 123.072H107.61C112.788 123.072 116.762 118.894 116.762 113.72V13.9247C116.758 8.75121 112.779 4.53952 107.606 4.53952ZM106.398 112.259H98.2533L93.6897 100.197C95.0101 99.9832 96.2 99.2758 97.0184 98.2177C97.8367 97.1596 98.2222 95.83 98.0967 94.4983C97.9713 93.1665 97.3444 91.9323 96.3429 91.0456C95.3414 90.1589 94.0403 89.686 92.7032 89.7228H89.7195L85.9866 79.8096H93.6119C96.5711 79.8096 98.9614 77.3538 98.9614 74.3986C98.9614 71.4435 96.5711 68.9959 93.6119 68.9959H81.9878L78.255 59.0786H93.6119C96.5711 59.0786 98.9614 56.8479 98.9614 53.8969C98.9614 50.9376 96.5711 48.707 93.6119 48.707H74.2561L70.5233 38.7978H93.6119C96.5711 38.7978 98.9614 36.342 98.9614 33.3869C98.9614 30.4359 96.5711 27.9842 93.6119 27.9842H66.5286L61.7234 15.3614H106.394V112.259H106.398Z" fill="black"/>
</g>
<defs>
<clipPath id="clip0_95_61">
<rect width="128" height="128" fill="white" transform="translate(0.254883 0.0290527)"/>
</clipPath>
</defs>
</svg>
