<svg width="129" height="129" viewBox="0 0 129 129" fill="none" xmlns="http://www.w3.org/2000/svg">
<path d="M116.251 24.2119H12.251C10.9378 24.2119 9.6374 24.4706 8.42414 24.9731C7.21089 25.4757 6.10849 26.2123 5.17991 27.1408C3.30454 29.0162 2.25098 31.5597 2.25098 34.2119V94.2119C2.25098 96.8641 3.30454 99.4076 5.17991 101.283C6.10849 102.212 7.21089 102.948 8.42414 103.451C9.6374 103.953 10.9378 104.212 12.251 104.212H116.251C118.903 104.212 121.447 103.158 123.322 101.283C125.197 99.4076 126.251 96.8641 126.251 94.2119V34.2119C126.251 31.5597 125.197 29.0162 123.322 27.1408C121.447 25.2655 118.903 24.2119 116.251 24.2119ZM12.251 28.2119H116.251C117.842 28.2119 119.368 28.8441 120.494 29.9693C121.619 31.0945 122.251 32.6206 122.251 34.2119V36.2119H6.25098V34.2119C6.25098 32.6206 6.88312 31.0945 8.00834 29.9693C9.13355 28.8441 10.6597 28.2119 12.251 28.2119ZM116.251 100.212H12.251C10.6597 100.212 9.13355 99.5798 8.00834 98.4546C6.88312 97.3293 6.25098 95.8032 6.25098 94.2119V40.2119H122.251V94.2119C122.251 95.8032 121.619 97.3293 120.494 98.4546C119.368 99.5798 117.842 100.212 116.251 100.212Z" fill="black"/>
<path d="M113.691 78.4119L110.111 69.4719C109.963 69.0998 109.706 68.7807 109.375 68.5561C109.043 68.3314 108.652 68.2115 108.251 68.2119H92.251C91.8504 68.2115 91.459 68.3314 91.1273 68.5561C90.7957 68.7807 90.5392 69.0998 90.391 69.4719L86.811 78.4119C85.5135 78.7327 84.3602 79.4775 83.5341 80.5282C82.7081 81.5789 82.2565 82.8754 82.251 84.2119V88.2119C82.251 88.7423 82.4617 89.2511 82.8368 89.6261C83.2118 90.0012 83.7205 90.2119 84.251 90.2119H86.251C86.251 91.8032 86.8831 93.3293 88.0083 94.4546C89.1336 95.5798 90.6597 96.2119 92.251 96.2119C93.8423 96.2119 95.3684 95.5798 96.4936 94.4546C97.6188 93.3293 98.251 91.8032 98.251 90.2119H102.251C102.251 91.8032 102.883 93.3293 104.008 94.4546C105.134 95.5798 106.66 96.2119 108.251 96.2119C109.842 96.2119 111.368 95.5798 112.494 94.4546C113.619 93.3293 114.251 91.8032 114.251 90.2119H116.251C116.781 90.2119 117.29 90.0012 117.665 89.6261C118.04 89.2511 118.251 88.7423 118.251 88.2119V84.2119C118.245 82.8754 117.794 81.5789 116.968 80.5282C116.142 79.4775 114.988 78.7327 113.691 78.4119ZM93.691 72.2119H106.971L109.371 78.2119H91.371L93.691 72.2119ZM92.251 92.2119C91.7205 92.2119 91.2118 92.0012 90.8368 91.6261C90.4617 91.2511 90.251 90.7423 90.251 90.2119H94.251C94.251 90.7423 94.0403 91.2511 93.6652 91.6261C93.2901 92.0012 92.7814 92.2119 92.251 92.2119ZM108.251 92.2119C107.721 92.2119 107.212 92.0012 106.837 91.6261C106.462 91.2511 106.251 90.7423 106.251 90.2119H110.251C110.251 90.7423 110.04 91.2511 109.665 91.6261C109.29 92.0012 108.781 92.2119 108.251 92.2119ZM114.251 86.2119H86.251V84.2119C86.251 83.6815 86.4617 83.1728 86.8368 82.7977C87.2118 82.4226 87.7205 82.2119 88.251 82.2119H112.251C112.781 82.2119 113.29 82.4226 113.665 82.7977C114.04 83.1728 114.251 83.6815 114.251 84.2119V86.2119ZM56.251 44.2119H12.251C11.7205 44.2119 11.2118 44.4226 10.8368 44.7977C10.4617 45.1728 10.251 45.6815 10.251 46.2119V94.2119C10.251 94.7423 10.4617 95.2511 10.8368 95.6261C11.2118 96.0012 11.7205 96.2119 12.251 96.2119H56.251C56.7814 96.2119 57.2901 96.0012 57.6652 95.6261C58.0403 95.2511 58.251 94.7423 58.251 94.2119V46.2119C58.251 45.6815 58.0403 45.1728 57.6652 44.7977C57.2901 44.4226 56.7814 44.2119 56.251 44.2119ZM44.251 92.2119H42.251V84.2119H38.251V92.2119H30.251V84.2119H26.251V92.2119H24.251V82.2119C24.251 81.6815 24.4617 81.1728 24.8368 80.7977C25.2118 80.4226 25.7205 80.2119 26.251 80.2119H42.251C42.7814 80.2119 43.2901 80.4226 43.6652 80.7977C44.0403 81.1728 44.251 81.6815 44.251 82.2119V92.2119ZM54.251 92.2119H48.251V82.2119C48.251 80.6206 47.6188 79.0945 46.4936 77.9693C45.3684 76.8441 43.8423 76.2119 42.251 76.2119H26.251C24.6597 76.2119 23.1336 76.8441 22.0083 77.9693C20.8831 79.0945 20.251 80.6206 20.251 82.2119V92.2119H14.251V48.2119H54.251V92.2119ZM116.251 44.2119H64.251C63.7205 44.2119 63.2118 44.4226 62.8368 44.7977C62.4617 45.1728 62.251 45.6815 62.251 46.2119V62.2119C62.251 62.7423 62.4617 63.2511 62.8368 63.6261C63.2118 64.0012 63.7205 64.2119 64.251 64.2119H116.251C116.781 64.2119 117.29 64.0012 117.665 63.6261C118.04 63.2511 118.251 62.7423 118.251 62.2119V46.2119C118.251 45.6815 118.04 45.1728 117.665 44.7977C117.29 44.4226 116.781 44.2119 116.251 44.2119ZM114.251 60.2119H66.251V48.2119H114.251V60.2119Z" fill="black"/>
<path d="M42.251 68.2119V64.2119C42.251 62.0902 41.4081 60.0554 39.9078 58.5551C38.4075 57.0548 36.3727 56.2119 34.251 56.2119C32.1292 56.2119 30.0944 57.0548 28.5941 58.5551C27.0938 60.0554 26.251 62.0902 26.251 64.2119V68.2119C26.251 70.3336 27.0938 72.3685 28.5941 73.8688C30.0944 75.3691 32.1292 76.2119 34.251 76.2119C36.3727 76.2119 38.4075 75.3691 39.9078 73.8688C41.4081 72.3685 42.251 70.3336 42.251 68.2119ZM38.251 68.2119C38.251 69.2728 37.8295 70.2902 37.0794 71.0403C36.3293 71.7905 35.3118 72.2119 34.251 72.2119C33.1901 72.2119 32.1727 71.7905 31.4226 71.0403C30.6724 70.2902 30.251 69.2728 30.251 68.2119V64.2119C30.251 63.151 30.6724 62.1336 31.4226 61.3835C32.1727 60.6333 33.1901 60.2119 34.251 60.2119C35.3118 60.2119 36.3293 60.6333 37.0794 61.3835C37.8295 62.1336 38.251 63.151 38.251 64.2119V68.2119ZM62.251 68.2119H80.251V72.2119H62.251V68.2119ZM62.251 76.2119H80.251V80.2119H62.251V76.2119ZM62.251 84.2119H80.251V88.2119H62.251V84.2119ZM62.251 92.2119H80.251V96.2119H62.251V92.2119ZM70.251 52.2119H110.251V56.2119H70.251V52.2119Z" fill="black"/>
</svg>
