<svg width="129" height="129" viewBox="0 0 129 129" fill="none" xmlns="http://www.w3.org/2000/svg">
<path d="M33.1452 49.5451C35.3919 48.3622 36.722 46.5706 40.7507 46.5706C46.7647 46.5706 46.7647 50.5635 52.7787 50.5635C58.7924 50.5635 58.7924 46.5706 64.8064 46.5706C70.8204 46.5706 70.8204 50.5635 76.8346 50.5635C82.8489 50.5635 82.8489 46.5706 88.8631 46.5706C92.8102 46.5706 94.1671 48.2902 96.3333 49.4723M72.2453 116.879C72.2453 121.024 68.8849 124.385 64.7393 124.385C60.5938 124.385 57.2334 121.024 57.2334 116.879C57.2334 112.733 64.7393 104.261 64.7393 104.261C64.7393 104.261 72.2453 112.733 72.2453 116.879ZM111.558 21.1245H17.9209V14.3051C17.9209 8.5533 22.5836 3.89062 28.3354 3.89062H101.143C106.895 3.89062 111.558 8.5533 111.558 14.3051V21.1245Z" stroke="black" stroke-width="5" stroke-miterlimit="10" stroke-linecap="round" stroke-linejoin="round"/>
<path d="M12.7915 21.1245H116.687M84.1686 71.6446H45.3104C39.6439 71.6446 34.6067 68.0355 32.7845 62.67L17.9211 21.1245H111.558L96.6945 62.67C94.8723 68.0355 89.835 71.6446 84.1686 71.6446ZM72.98 86.6565L56.499 92.3552V71.6446H72.98V86.6565Z" stroke="black" stroke-width="5" stroke-miterlimit="10" stroke-linecap="round" stroke-linejoin="round"/>
</svg>
