<svg width="128" height="129" viewBox="0 0 128 129" fill="none" xmlns="http://www.w3.org/2000/svg">
<path d="M120.925 32.3023L108.089 26.0238V21.6473C108.089 19.3416 106.177 17.4733 103.822 17.4733H93.8666V13.2996C93.8666 6.39483 88.1248 0.777832 81.0666 0.777832H21.3335C14.275 0.777832 8.53349 6.39483 8.53349 13.2996V120.43H4.26674C1.91053 120.43 0 122.299 0 124.604C0 126.909 1.91027 128.778 4.26674 128.778H98.1331C100.489 128.778 102.4 126.909 102.4 124.604C102.4 122.299 100.49 120.43 98.1331 120.43H93.8666V75.9083H98.1333C100.486 75.9083 102.4 77.7808 102.4 80.0823V99.5606C102.4 106.465 108.142 112.082 115.2 112.082C122.258 112.082 128 106.465 128 99.5606V43.5021C128 38.7291 125.289 34.4368 120.925 32.3023ZM51.2055 98.1691C41.0112 98.1691 32.7166 90.0551 32.7166 80.0821C32.7166 76.4926 33.7915 73.0208 35.825 70.0441L47.6584 52.7193C49.2416 50.4013 53.1695 50.4013 54.7526 52.7193L66.5861 70.0428C68.619 73.0211 69.6941 76.4926 69.6941 80.0823C69.6944 90.0551 61.3999 98.1691 51.2055 98.1691ZM76.7998 38.3431C76.7998 40.6488 74.8885 42.5171 72.5331 42.5171H29.8667C27.5112 42.5171 25.5999 40.6488 25.5999 38.3431V21.6473C25.5999 19.3416 27.5112 17.4733 29.8667 17.4733H72.5331C74.8885 17.4733 76.7998 19.3416 76.7998 21.6473V38.3431ZM93.8666 25.8213H99.5555V50.8648H93.8666V25.8213ZM119.466 99.5603C119.466 101.862 117.552 103.734 115.2 103.734C112.847 103.734 110.933 101.862 110.933 99.5603V80.0821C110.933 73.1773 105.191 67.5603 98.1328 67.5603H93.8666V59.2126H103.822C106.178 59.2126 108.089 57.3443 108.089 55.0386V35.3578L117.109 39.7696C118.564 40.4803 119.467 41.9108 119.467 43.5018V99.5603H119.466Z" fill="black"/>
</svg>
