<svg width="128" height="129" viewBox="0 0 128 129" fill="none" xmlns="http://www.w3.org/2000/svg">
<g clip-path="url(#clip0_95_52)">
<path d="M124.548 56.4516L124.54 56.4428L72.3258 4.23108C70.1001 2.00408 67.1411 0.777832 63.9938 0.777832C60.8463 0.777832 57.8873 2.00333 55.6608 4.23008L3.47408 56.4153C3.45658 56.4328 3.43908 56.4513 3.42158 56.4691C-1.14892 61.0656 -1.14092 68.5236 3.44408 73.1086C5.53858 75.2043 8.30533 76.4181 11.2633 76.5451C11.3833 76.5568 11.5046 76.5626 11.6266 76.5626H13.7076V114.988C13.7076 122.591 19.8941 128.778 27.4996 128.778H47.9271C49.9976 128.778 51.6771 127.099 51.6771 125.028V94.9028C51.6771 91.4331 54.4996 88.6108 57.9693 88.6108H70.0181C73.4881 88.6108 76.3101 91.4333 76.3101 94.9028V125.028C76.3101 127.099 77.9888 128.778 80.0601 128.778H100.488C108.093 128.778 114.28 122.591 114.28 114.988V76.5628H116.21C119.356 76.5628 122.315 75.3373 124.543 73.1108C129.133 68.5181 129.134 61.0473 124.548 56.4516Z" fill="black"/>
</g>
<defs>
<clipPath id="clip0_95_52">
<rect width="128" height="128" fill="white" transform="translate(0 0.777832)"/>
</clipPath>
</defs>
</svg>
