<svg width="128" height="129" viewBox="0 0 128 129" fill="none" xmlns="http://www.w3.org/2000/svg">
<path fill-rule="evenodd" clip-rule="evenodd" d="M120.059 74.2098C117.648 74.2098 115.483 74.8061 113.633 75.8258C112.308 75.8524 111.044 76.3915 110.108 77.3301C108.823 78.6148 106.633 77.7081 106.633 75.8908C106.633 73.0516 104.329 70.7481 101.49 70.7481H98.576C98.9873 68.5391 99.185 66.3493 99.1708 64.0281C99.8485 63.5422 100.485 63.0017 101.075 62.4121C104.163 59.3248 105.77 55.0943 105.519 50.7388C105.283 46.6533 100.311 44.7606 97.418 47.6538L95.8158 49.2561C95.152 47.8514 94.3957 46.4924 93.5518 45.1881L94.2518 44.4881C97.145 41.5948 95.252 36.6231 91.1668 36.3876C89.4706 36.289 87.7699 36.4739 86.1345 36.9346C84.8931 35.9269 83.5845 35.0049 82.2178 34.1751L84.092 31.4091C84.7119 30.4951 84.9937 29.3936 84.889 28.2942C84.7843 27.1949 84.2997 26.1664 83.5185 25.3858L80.6698 22.5363C79.8892 21.7552 78.8607 21.2706 77.7613 21.1659C76.662 21.0612 75.5605 21.343 74.6465 21.9628L67.722 26.6551C66.8233 27.2641 66.1773 28.1353 65.859 29.1436C65.2397 29.1111 64.6197 29.0948 63.9995 29.0946C44.5883 29.0946 28.8503 44.8186 28.8258 64.2241L23.6915 69.3583C20.1103 72.9396 20.1103 78.7821 23.6915 82.3633C26.6843 85.3561 31.2565 85.8468 34.7683 83.8376C35.3614 84.7211 35.9942 85.5774 36.6648 86.4038C36.2041 88.0392 36.0192 89.7399 36.1178 91.4361C36.3535 95.5216 41.3253 97.4143 44.2185 94.5211L44.9185 93.8211C46.2229 94.6649 47.5819 95.4213 48.9865 96.0851L47.3843 97.6873C44.491 100.581 46.384 105.552 50.4693 105.788C54.8248 106.039 59.0553 104.432 62.1425 101.345C62.7322 100.755 63.2727 100.118 63.7585 99.4403C66.0798 99.4546 68.2695 99.2571 70.4785 98.8456V101.76C70.4785 104.599 72.7823 106.902 75.6213 106.902C77.438 106.902 78.345 109.092 77.0605 110.377C76.122 111.313 75.5829 112.577 75.5563 113.902C74.5365 115.752 73.9403 117.917 73.9403 120.328C73.9403 122.505 72.1753 124.269 69.999 124.269H57.9995C55.8233 124.269 54.0583 122.505 54.0583 120.328C54.0583 108.498 39.7543 102.573 31.389 110.938C29.8503 112.477 27.354 112.477 25.815 110.938L17.33 102.453C15.7908 100.914 15.7908 98.4181 17.33 96.8791C25.6843 88.5248 19.7558 74.2101 7.94027 74.2101C5.76277 74.2101 3.99902 72.4453 3.99902 70.2686V58.2693C3.99902 56.0928 5.76277 54.3278 7.94027 54.3278C19.7558 54.3278 25.6843 40.0133 17.33 31.6588C15.7908 30.1198 15.7908 27.6238 17.33 26.0848L25.815 17.5996C27.354 16.0603 29.85 16.0603 31.389 17.5996C39.7435 25.9541 54.0583 20.0256 54.0583 8.2098C54.0583 6.0323 55.8233 4.26855 57.9995 4.26855H69.999C72.1753 4.26855 73.9403 6.0323 73.9403 8.2098C73.9403 20.0256 88.2545 25.9541 96.6093 17.5996C98.148 16.0603 100.644 16.0603 102.183 17.5996L110.669 26.0848C112.208 27.6238 112.208 30.1198 110.669 31.6588C102.314 40.0133 108.243 54.3278 120.058 54.3278C122.236 54.3278 124 56.0928 124 58.2693V70.2686C124 72.4451 122.236 74.2098 120.059 74.2098ZM87.6108 53.1471L87.1465 47.2633C87.1168 46.8858 87.241 46.5491 87.5088 46.2811L91.7773 42.0126C92.5413 41.2486 92.044 39.9431 90.9655 39.8808C87.733 39.6943 84.4385 40.8353 81.9688 43.3051C78.6875 46.5863 77.7513 51.3236 79.1583 55.4366C79.3165 55.8988 79.205 56.3793 78.8595 56.7251L56.4563 79.1283C56.1108 79.4738 55.6303 79.5853 55.1678 79.4271C51.0548 78.0198 46.3175 78.9563 43.0363 82.2376C40.5668 84.7071 39.4255 88.0018 39.612 91.2343C39.6743 92.3128 40.98 92.8101 41.7438 92.0461L46.0123 87.7776C46.28 87.5098 46.6168 87.3856 46.9943 87.4153L52.878 87.8796C53.1752 87.9015 53.4545 88.0294 53.6652 88.2401C53.8759 88.4508 54.0039 88.7302 54.0258 89.0273L54.49 94.9111C54.5198 95.2886 54.3955 95.6253 54.1278 95.8933L49.8593 100.162C49.0953 100.926 49.5925 102.231 50.671 102.294C53.9035 102.48 57.1983 101.339 59.6678 98.8693C62.949 95.5881 63.8853 90.8508 62.478 86.7378C62.3198 86.2756 62.4313 85.7951 62.7768 85.4493L85.18 63.0461C85.5255 62.7006 86.006 62.5891 86.4685 62.7473C90.5815 64.1543 95.319 63.2181 98.6 59.9368C101.07 57.4673 102.211 54.1726 102.024 50.9401C101.962 49.8616 100.657 49.3643 99.8925 50.1283L95.624 54.3968C95.3563 54.6646 95.0195 54.7888 94.642 54.7591L88.7583 54.2948C88.4612 54.2728 88.1819 54.1448 87.9712 53.9342C87.7606 53.7235 87.6327 53.4442 87.6108 53.1471ZM55.0833 59.0273C55.3171 58.7926 55.4484 58.4747 55.4484 58.1434C55.4484 57.8121 55.3171 57.4943 55.0833 57.2596L48.7955 50.9718C48.5608 50.738 48.243 50.6068 47.9118 50.6068C47.5805 50.6068 47.2627 50.738 47.028 50.9718L26.1668 71.8331C23.9515 74.0483 23.9515 77.6733 26.1668 79.8883C28.382 82.1036 32.0073 82.1031 34.222 79.8883L55.0833 59.0273ZM72.1765 37.2626L75.5953 36.9121C75.976 36.8731 76.2878 36.6866 76.5025 36.3698L81.1948 29.4453C81.3595 29.2054 81.4347 28.9151 81.4071 28.6254C81.3795 28.3356 81.2509 28.0648 81.0438 27.8603L78.1948 25.0111C77.9903 24.8039 77.7194 24.6753 77.4297 24.6477C77.1399 24.6201 76.8497 24.6953 76.6098 24.8601L69.6853 29.5523C69.3685 29.7671 69.182 30.0788 69.143 30.4596L68.7923 33.8786C68.7669 34.1656 68.6393 34.4339 68.4328 34.6348L52.9203 50.1473L55.9075 53.1346L71.4198 37.6221C71.6209 37.4156 71.8894 37.288 72.1765 37.2626ZM98.5725 110.527C98.6162 110.603 98.679 110.666 98.7546 110.709C98.8302 110.753 98.916 110.777 99.0034 110.777C99.0907 110.777 99.1767 110.754 99.2526 110.711C99.3284 110.668 99.3916 110.605 99.4358 110.53C102.781 104.844 110.462 95.3526 104.677 89.5668C101.556 86.4466 96.4503 86.4466 93.33 89.5668C87.5845 95.3123 94.9323 104.251 98.5725 110.527ZM98.9893 92.2563C97.6085 92.2563 96.4893 93.3756 96.4893 94.7563C96.4893 96.1371 97.6085 97.2563 98.9893 97.2563C100.37 97.2563 101.489 96.1371 101.489 94.7563C101.489 93.3756 100.37 92.2563 98.9893 92.2563ZM122.357 103.402C122.793 103.402 123.21 103.229 123.519 102.921C123.827 102.613 124 102.195 124 101.759V96.7573C124 96.5416 123.957 96.3279 123.875 96.1286C123.792 95.9293 123.671 95.7482 123.519 95.5956C123.366 95.4431 123.185 95.3221 122.986 95.2395C122.786 95.157 122.573 95.1145 122.357 95.1146C117.432 95.1146 114.961 89.1478 118.443 85.6653C118.751 85.3572 118.924 84.9393 118.924 84.5036C118.924 84.0678 118.751 83.65 118.443 83.3418L114.906 79.8048C114.598 79.4969 114.18 79.3239 113.744 79.3239C113.308 79.3239 112.89 79.4969 112.582 79.8048C109.1 83.2873 103.133 80.8163 103.133 75.8908C103.133 75.6751 103.091 75.4614 103.008 75.2621C102.925 75.0628 102.804 74.8817 102.652 74.7291C102.499 74.5766 102.318 74.4556 102.119 74.373C101.92 74.2905 101.706 74.248 101.49 74.2481H96.4883C96.0526 74.2481 95.6347 74.4211 95.3266 74.7292C95.0185 75.0373 94.8453 75.4551 94.8453 75.8908C94.8453 80.8161 88.8785 83.2873 85.396 79.8048C85.0878 79.4969 84.6699 79.3239 84.2343 79.3239C83.7986 79.3239 83.3807 79.4969 83.0725 79.8048L79.5355 83.3418C79.2275 83.65 79.0544 84.0678 79.0544 84.5036C79.0544 84.9393 79.2275 85.3572 79.5355 85.6653C83.018 89.1478 80.5468 95.1146 75.6215 95.1146C75.4058 95.1145 75.1921 95.157 74.9928 95.2395C74.7935 95.3221 74.6123 95.4431 74.4598 95.5956C74.3072 95.7482 74.1862 95.9293 74.1036 96.1286C74.021 96.3279 73.9785 96.5416 73.9785 96.7573V101.759C73.9785 102.195 74.1516 102.613 74.4597 102.921C74.7679 103.229 75.1858 103.402 75.6215 103.402C80.5468 103.402 83.0178 109.369 79.5355 112.852C79.2275 113.16 79.0544 113.578 79.0544 114.013C79.0544 114.449 79.2275 114.867 79.5355 115.175L83.0725 118.712C83.225 118.865 83.4062 118.986 83.6055 119.068C83.8048 119.151 84.0185 119.193 84.2343 119.193C84.45 119.193 84.6637 119.151 84.863 119.068C85.0624 118.986 85.2435 118.865 85.396 118.712C88.883 115.225 94.8453 117.695 94.8453 122.626C94.8452 122.842 94.8877 123.055 94.9703 123.255C95.0528 123.454 95.1739 123.635 95.3264 123.788C95.479 123.94 95.6602 124.061 95.8595 124.144C96.0589 124.226 96.2725 124.269 96.4883 124.269H101.49C101.926 124.269 102.344 124.096 102.652 123.788C102.96 123.48 103.133 123.062 103.133 122.626C103.133 117.701 109.1 115.23 112.582 118.712C112.735 118.865 112.916 118.986 113.115 119.068C113.315 119.151 113.528 119.193 113.744 119.193C113.96 119.193 114.173 119.151 114.373 119.068C114.572 118.986 114.753 118.865 114.906 118.712L118.443 115.175C118.751 114.867 118.924 114.449 118.924 114.013C118.924 113.578 118.751 113.16 118.443 112.852C114.961 109.369 117.432 103.402 122.357 103.402ZM95.545 112.283C97.0783 114.927 100.903 114.939 102.452 112.305C104.6 108.655 107.028 105.398 108.702 101.453C110.802 96.5051 111.236 91.1771 107.151 87.0921C102.665 82.6058 95.3413 82.6058 90.855 87.0921C86.8225 91.1246 87.1358 96.2901 89.206 101.206C90.8873 105.199 93.3918 108.571 95.545 112.283Z" fill="black"/>
</svg>
