<svg width="128" height="129" viewBox="0 0 128 129" fill="none" xmlns="http://www.w3.org/2000/svg">
<g clip-path="url(#clip0_161_18)">
<path d="M81.0782 52.3233C81.0782 50.9413 79.958 49.8213 78.5752 49.8213H56.5635C55.1817 49.8213 54.0615 50.9413 54.0615 52.3233C54.0615 53.7053 55.1815 54.8251 56.5635 54.8251H78.575C79.9567 54.8251 81.0782 53.7051 81.0782 52.3233ZM33.416 24.7988H28.7785C25.92 24.7988 23.5958 27.1201 23.5958 29.9726V32.3808H21.1835C18.3253 32.3808 16 34.7058 16 37.5626V42.2041C16 45.0606 18.325 47.3848 21.1835 47.3848H23.5958V49.7931C23.5958 52.6506 25.92 54.9746 28.7782 54.9746H33.416C36.2745 54.9746 38.5995 52.6503 38.5995 49.7931V47.3848H41.0117C43.8692 47.3848 46.1942 45.0606 46.1942 42.2041V37.5626C46.1942 34.7061 43.8692 32.3808 41.0117 32.3808H38.5995V29.9726C38.5995 27.1201 36.2745 24.7988 33.416 24.7988ZM41.0107 37.3858C41.1045 37.3858 41.1895 37.4698 41.1895 37.5626V42.2041C41.1895 42.2958 41.1045 42.3798 41.0107 42.3798H36.0967C34.7147 42.3798 33.5947 43.5011 33.5947 44.8828V49.7928C33.5947 49.8858 33.5098 49.9698 33.416 49.9698H28.7785C28.6855 49.9698 28.6005 49.8858 28.6005 49.7931V44.8826C28.6005 43.5008 27.4795 42.3796 26.0977 42.3796H21.1835C21.0898 42.3796 21.005 42.2956 21.005 42.2038V37.5626C21.005 37.4698 21.09 37.3858 21.1835 37.3858H26.0977C27.4795 37.3858 28.6005 36.2658 28.6005 34.8838V29.9726C28.6005 29.8858 28.6865 29.8038 28.7782 29.8038H33.416C33.5078 29.8038 33.5947 29.8858 33.5947 29.9726V34.8838C33.5947 36.2656 34.7147 37.3858 36.0967 37.3858H41.0107ZM82.17 37.3916C82.17 36.0098 81.05 34.8896 79.668 34.8896H56.5635C55.1817 34.8896 54.0615 36.0096 54.0615 37.3916C54.0615 38.7743 55.1815 39.8946 56.5635 39.8946H79.668C81.0497 39.8946 82.17 38.7746 82.17 37.3916ZM20.1835 69.7501H77.4765C78.8585 69.7501 79.9785 68.6288 79.9785 67.2471C79.9785 65.8653 78.8585 64.7451 77.4765 64.7451H20.1835C18.8018 64.7451 17.6807 65.8651 17.6807 67.2471C17.6807 68.6288 18.8018 69.7501 20.1835 69.7501Z" fill="black"/>
<path d="M111.375 79.0743C105.472 78.1728 100.674 76.9628 97.0125 75.4551V53.6983C97.0126 53.3697 96.9479 53.0442 96.8222 52.7405C96.6964 52.4368 96.5121 52.1609 96.2797 51.9285C96.0473 51.696 95.7714 51.5117 95.4678 51.3859C95.1641 51.2601 94.8387 51.1953 94.51 51.1953C93.128 51.1953 92.0078 52.3153 92.0078 53.6983V72.6983C91.4493 72.2716 90.9523 71.8308 90.5195 71.3731C90.2857 71.1259 90.0039 70.9291 89.6914 70.7945C89.3789 70.66 89.0422 70.5906 88.702 70.5906C88.3618 70.5906 88.0251 70.66 87.7126 70.7945C87.4001 70.9291 87.1183 71.1259 86.8845 71.3731C83.5695 74.8781 76.5497 77.4688 66.0225 79.0743C65.55 79.1462 65.1083 79.3526 64.75 79.6688H20.1835C18.8018 79.6688 17.6807 80.7888 17.6807 82.1708C17.6807 83.5528 18.8018 84.6728 20.1835 84.6728H63.8965V94.5928H18.503C17.121 94.5928 16 95.7128 16 97.0948C16 98.4768 17.121 99.5966 18.503 99.5966H64.0967C64.9217 105.865 67.8367 111.708 72.794 117.035H12.3897C8.455 117.035 5.25475 113.841 5.25475 109.914V17.6708C5.25475 13.7441 8.455 10.5498 12.3897 10.5498H24.333V11.4773C24.333 14.0098 26.3975 16.0703 28.9345 16.0703H68.3282C70.8652 16.0703 72.9297 14.0098 72.9297 11.4776V10.5498H84.873C88.8075 10.5498 92.0088 13.7441 92.0088 17.6708V33.7353C92.0088 35.1171 93.1287 36.2383 94.5107 36.2383C95.8925 36.2383 97.0127 35.1171 97.0127 33.7353V17.6708C97.0127 10.9843 91.5675 5.54483 84.873 5.54483H72.93V4.61033C72.9298 2.07808 70.865 0.0175781 68.328 0.0175781H28.9345C26.3975 0.0175781 24.333 2.07808 24.333 4.61033V5.54483H12.3897C5.69625 5.54508 0.25 10.9843 0.25 17.6708V109.914C0.25 116.601 5.69525 122.04 12.3897 122.04H78.171C82.676 125.905 85.457 128.014 88.6855 128.018H88.6955C92.3273 128.018 95.3858 125.371 100.935 120.572C108.776 113.784 113.002 106.044 113.496 97.5663C113.499 97.5186 113.501 97.4698 113.501 97.4208V81.5478C113.501 80.9495 113.286 80.3711 112.896 79.9174C112.506 79.4636 111.966 79.1645 111.375 79.0743ZM29.338 5.02258H67.9248V11.0651H29.338V5.02258ZM108.496 97.3458C108.063 104.397 104.416 110.938 97.6592 116.787C93.3262 120.536 90.463 123.013 88.6943 123.013H88.6925C86.9365 123.011 84.2295 120.668 79.745 116.788C72.9883 110.939 69.3408 104.398 68.9013 97.3456V83.6768C78.0518 82.1006 84.5742 79.7286 88.7022 76.4678C89.9892 77.4833 91.5088 78.4141 93.2685 79.2608C93.3818 79.3261 93.501 79.3808 93.624 79.4278C97.458 81.2168 102.391 82.6241 108.496 83.6768V97.3458Z" fill="black"/>
<path d="M85.7814 101.787L81.3802 97.6582C80.3722 96.7127 78.7882 96.7625 77.8429 97.7715C76.8967 98.779 76.9474 100.362 77.9554 101.308L84.2102 107.176C84.6739 107.611 85.2861 107.853 85.9222 107.853C86.2707 107.853 86.6155 107.781 86.9343 107.64C87.2532 107.499 87.5391 107.293 87.7737 107.035L100.46 93.0887C101.391 92.0662 101.316 90.4832 100.293 89.5537C99.2707 88.623 97.6877 88.6982 96.7582 89.7207L85.7814 101.787ZM94.5102 41.168C93.1282 41.168 92.0079 42.289 92.0079 43.6707V43.7127C92.0079 45.0947 93.1279 46.2147 94.5099 46.2147C95.8927 46.2147 97.0129 45.0947 97.0129 43.7127V43.6707C97.0129 42.289 95.8929 41.168 94.5099 41.168H94.5102Z" fill="black"/>
</g>
<defs>
<clipPath id="clip0_161_18">
<rect width="128" height="128" fill="white" transform="translate(0 0.0175781)"/>
</clipPath>
</defs>
</svg>
