<svg width="129" height="129" viewBox="0 0 129 129" fill="none" xmlns="http://www.w3.org/2000/svg">
<path d="M110.765 85.5961C110.35 85.0961 109.943 84.5961 109.543 84.1136C104.043 77.4611 100.715 73.4461 100.715 54.6136C100.715 44.8636 98.3827 36.8636 93.7852 30.8636C90.3952 26.4311 85.8127 23.0686 79.7727 20.5836C79.695 20.5403 79.6256 20.4836 79.5677 20.4161C77.3952 13.1411 71.4502 8.26855 64.7452 8.26855C58.0402 8.26855 52.0977 13.1411 49.9252 20.4086C49.8672 20.4736 49.7988 20.5285 49.7227 20.5711C35.6277 26.3736 28.7777 37.5061 28.7777 54.6061C28.7777 73.4461 25.4552 77.4611 19.9502 84.1061C19.5502 84.5886 19.1427 85.0786 18.7277 85.5886C17.6557 86.8814 16.9765 88.4542 16.7705 90.121C16.5645 91.7877 16.8403 93.4786 17.5652 94.9936C19.1077 98.2436 22.3952 100.261 26.1477 100.261H103.37C107.105 100.261 110.37 98.2461 111.918 95.0111C112.646 93.4958 112.924 91.8035 112.72 90.1348C112.516 88.4661 111.837 86.891 110.765 85.5961ZM64.7452 120.269C68.3578 120.266 71.9022 119.285 75.0026 117.431C78.103 115.576 80.6437 112.917 82.3552 109.736C82.4358 109.584 82.4757 109.413 82.4708 109.24C82.466 109.068 82.4166 108.9 82.3275 108.752C82.2385 108.604 82.1127 108.482 81.9625 108.398C81.8123 108.313 81.6427 108.268 81.4702 108.269H48.0252C47.8525 108.268 47.6826 108.312 47.5321 108.397C47.3815 108.481 47.2554 108.603 47.166 108.751C47.0766 108.899 47.0271 109.067 47.0221 109.24C47.0172 109.412 47.057 109.583 47.1377 109.736C48.849 112.917 51.3893 115.576 54.4892 117.43C57.5891 119.284 61.133 120.265 64.7452 120.269Z" fill="black"/>
</svg>
