<svg width="129" height="129" viewBox="0 0 129 129" fill="none" xmlns="http://www.w3.org/2000/svg">
<g clip-path="url(#clip0_169_124)">
<path d="M123.864 58.8197H111.631V52.7034C111.631 49.3314 108.887 46.5872 105.515 46.5872H77.8568L46.3904 0.137695L11.0361 52.3282C4.82185 61.5007 1.5376 72.2062 1.5376 83.2849C1.5376 108.017 21.6581 128.138 46.3904 128.138C50.3231 128.138 54.2091 127.603 57.9726 126.6C59.3101 127.559 60.9348 128.138 62.7006 128.138H115.709C120.206 128.138 123.864 124.48 123.864 119.983V71.0522C126.112 71.0522 127.941 69.2234 127.941 66.9747V62.8972C127.941 60.6484 126.112 58.8197 123.864 58.8197ZM107.554 52.7032V58.8194H70.8556V52.7032C70.8556 51.5799 71.7711 50.6644 72.8943 50.6644H105.515C106.638 50.6644 107.554 51.5799 107.554 52.7032ZM107.554 111.827V71.0522H111.631V111.827H107.554ZM103.476 111.827H99.3983V71.0522H103.476V111.827ZM95.3208 111.827H91.2433V71.0522H95.3208V111.827ZM87.1658 111.827H83.0883V71.0522H87.1658V111.827ZM79.0108 111.827H74.9333V71.0522H79.0108V111.827ZM70.8556 111.827H66.7781V71.0522H70.8556V111.827ZM62.7006 111.827H58.6231V71.0522H62.7006V111.827ZM54.5456 71.0522V114.855C51.8911 115.538 49.1591 115.905 46.3906 115.905C28.4046 115.905 13.7703 101.271 13.7703 83.2849C13.7703 75.6804 15.9701 68.2939 20.1333 61.9289L46.3904 21.7689L66.7781 52.9519V58.8194H54.5456C52.2969 58.8194 50.4681 60.6482 50.4681 62.8969V66.9744C50.4678 69.2234 52.2969 71.0522 54.5456 71.0522ZM5.6151 83.2847C5.6151 73.0237 8.65685 63.1089 14.4123 54.6134L46.3904 7.40795L72.9311 46.5869H72.8943C71.2348 46.5869 69.7323 47.2557 68.6293 48.3322L46.3904 14.3194L16.7203 59.6982C12.1228 66.7299 9.6926 74.8849 9.6926 83.2847C9.6926 103.519 26.1556 119.982 46.3904 119.982C49.134 119.984 51.8693 119.679 54.5453 119.073V119.982C54.5453 121.089 54.7716 122.143 55.1733 123.108C52.2886 123.741 49.3438 124.06 46.3904 124.06C23.9069 124.06 5.6151 105.77 5.6151 83.2847ZM115.709 124.06H62.7006C60.4518 124.06 58.6231 122.231 58.6231 119.983V115.905H119.786V119.983C119.786 122.231 117.957 124.06 115.709 124.06ZM119.786 111.827H115.709V71.0522H119.786V111.827ZM54.5456 66.9747V62.8972H123.864L123.866 66.9747H54.5456Z" fill="black"/>
<path d="M46.3903 71.0522C46.3903 64.306 40.904 58.8197 34.1578 58.8197C27.4115 58.8197 21.9253 64.306 21.9253 71.0522C21.9253 77.7985 27.4115 83.2847 34.1578 83.2847C40.904 83.2847 46.3903 77.7985 46.3903 71.0522ZM26.0028 71.0522C26.0028 66.5547 29.6603 62.8972 34.1578 62.8972C38.6553 62.8972 42.3128 66.5547 42.3128 71.0522C42.3128 75.5497 38.6553 79.2072 34.1578 79.2072C29.6603 79.2072 26.0028 75.5497 26.0028 71.0522ZM54.5455 48.6257C54.5455 44.1282 50.888 40.4707 46.3905 40.4707C41.893 40.4707 38.2355 44.1282 38.2355 48.6257C38.2355 53.1232 41.893 56.7807 46.3905 56.7807C50.888 56.7807 54.5455 53.1232 54.5455 48.6257ZM46.3903 52.7032C44.1415 52.7032 42.3128 50.8745 42.3128 48.6257C42.3128 46.377 44.1415 44.5482 46.3903 44.5482C48.639 44.5482 50.4678 46.377 50.4678 48.6257C50.4678 50.8745 48.639 52.7032 46.3903 52.7032ZM42.3128 87.3624C37.8153 87.3624 34.1578 91.02 34.1578 95.5175C34.1578 100.015 37.8153 103.672 42.3128 103.672C46.8103 103.672 50.4678 100.015 50.4678 95.5175C50.4678 91.02 46.8103 87.3624 42.3128 87.3624ZM42.3128 99.595C40.064 99.595 38.2353 97.7662 38.2353 95.5175C38.2353 93.2687 40.064 91.44 42.3128 91.44C44.5615 91.44 46.3903 93.2687 46.3903 95.5175C46.3903 97.7662 44.5615 99.595 42.3128 99.595Z" fill="black"/>
</g>
<defs>
<clipPath id="clip0_169_124">
<rect width="128" height="128" fill="white" transform="translate(0.739258 0.137695)"/>
</clipPath>
</defs>
</svg>
