<svg width="128" height="128" viewBox="0 0 128 128" fill="none" xmlns="http://www.w3.org/2000/svg">
<g clip-path="url(#clip0_138_2)">
<path d="M127.817 30.8475C128.122 38.05 128.002 43.3051 127.737 47.1376C127.29 53.5001 122.052 58.53 115.42 59.085C111.61 59.395 106.42 59.62 99.4198 59.62H98.4798C90.9898 59.6 85.5273 59.3376 81.5273 58.9776C74.8823 58.3876 69.6173 53.1226 69.0273 46.4776C68.6673 42.4876 68.4048 37.0125 68.3848 29.525C68.3648 22.0375 68.5923 16.5775 68.9173 12.5775C69.4723 5.94255 74.4998 0.705049 80.8773 0.250049C83.1148 0.0925488 85.8348 -0.0124512 89.1473 -0.0124512L89.1348 4.88283e-05C91.4998 4.88283e-05 94.1548 0.0525488 97.1548 0.180049C104.355 0.500049 109.632 1.05755 113.5 1.64255C119.9 2.63005 125.37 8.10005 126.357 14.5C126.942 18.3675 127.512 23.645 127.817 30.8475ZM118.262 46.4725C118.555 42.25 118.577 37.1325 118.327 31.25C118.142 26.1265 117.688 21.0161 116.967 15.94C116.605 13.6375 114.36 11.395 112.055 11.0325C106.979 10.312 101.868 9.85807 96.7448 9.67255C94.0573 9.55755 91.4948 9.50005 89.1348 9.50005L89.1473 9.48755C86.3673 9.48755 83.8073 9.58005 81.5373 9.73755C79.8973 9.86505 78.5648 11.365 78.3973 13.365C78.0473 17.6775 77.8798 23.1075 77.8973 29.5C77.9148 35.9525 78.1173 41.3775 78.4998 45.6275C78.6798 47.6875 80.3098 49.3226 82.3673 49.5126C86.6348 49.8951 92.0598 50.0976 98.4998 50.1151H99.4148C105.415 50.1151 110.535 49.9476 114.635 49.6151C116.62 49.4476 118.145 48.125 118.262 46.4725ZM127.735 80.8825C128.002 84.715 128.127 89.9725 127.815 97.1725C127.502 104.373 126.937 109.65 126.352 113.51C125.365 119.918 119.897 125.388 113.487 126.375C109.627 126.96 104.35 127.525 97.1498 127.838C94.1498 127.965 91.4898 128.018 89.1273 128.018C85.8173 128.018 83.1098 127.913 80.8598 127.755C74.4998 127.313 69.4673 122.073 68.9123 115.44C68.5873 111.453 68.3598 105.983 68.3798 98.4925C68.3998 91.0025 68.6623 85.54 69.0223 81.54C69.6123 74.895 74.8773 69.63 81.5223 69.04C85.5098 68.68 90.9748 68.4175 98.4748 68.3975H99.4173V68.4C106.417 68.4 111.6 68.625 115.417 68.935C122.05 69.49 127.29 74.5225 127.735 80.8825ZM118.327 96.7425C118.577 90.855 118.555 85.7325 118.262 81.525C118.137 79.8825 116.622 78.55 114.637 78.3825C110.537 78.0525 105.417 77.8825 99.4173 77.8825V77.8975H98.5023C92.0573 77.915 86.6223 78.1175 82.3723 78.5C81.3745 78.5873 80.439 79.0224 79.7293 79.7293C79.0197 80.4363 78.581 81.37 78.4898 82.3675C78.1048 86.6325 77.9023 92.0925 77.8848 98.5C77.8673 104.908 78.0348 110.338 78.3848 114.64C78.5548 116.623 79.8748 118.145 81.5273 118.263C83.7948 118.42 86.3548 118.5 89.1323 118.5C91.4998 118.5 94.0573 118.443 96.7498 118.328C101.872 118.14 106.98 117.685 112.055 116.965C114.36 116.605 116.605 114.36 116.967 112.055C117.687 106.978 118.14 101.868 118.327 96.7425ZM59.0923 12.575C59.4173 16.5625 59.6448 22.0325 59.6248 29.5225C59.6048 37.0125 59.3423 42.4875 58.9848 46.475C58.3923 53.1175 53.1273 58.3825 46.4848 58.975C42.4973 59.335 37.0348 59.5975 29.5348 59.6175H28.5773C21.5773 59.6175 16.3923 59.3926 12.5773 59.0826C5.94233 58.5276 0.707327 53.5 0.262327 47.135C-0.00517341 43.3025 -0.135173 38.045 0.182327 30.845C0.499827 23.645 1.05983 18.3675 1.64233 14.5C2.62983 8.10005 8.09983 2.63005 14.4998 1.64255C18.3673 1.05755 23.6448 0.500049 30.8448 0.180049C33.8448 0.0550488 36.5073 4.88283e-05 38.8698 4.88283e-05V0.0125488C42.1798 0.0125488 44.8998 0.105049 47.1348 0.262549C53.4998 0.705049 58.5273 5.94255 59.0923 12.575ZM50.1148 29.5126C50.1323 23.1201 49.9648 17.6875 49.6148 13.37C49.4448 11.3875 48.1248 9.86755 46.4723 9.75005C44.2073 9.58005 41.6498 9.50005 38.8698 9.50005C36.4998 9.50005 33.9448 9.55755 31.2498 9.67255C26.1273 9.85755 21.0173 10.3125 15.9423 11.03C13.6398 11.3925 11.3948 13.6375 11.0323 15.9425C10.3118 21.0178 9.85785 26.1273 9.67233 31.25C9.42233 37.135 9.44483 42.25 9.73733 46.4875C9.86233 48.1275 11.3773 49.46 13.3623 49.6275C17.4523 49.9575 22.5698 50.1275 28.5698 50.1275H29.4998C35.9348 50.11 41.3598 49.9076 45.6298 49.5251C47.6923 49.3426 49.3298 47.7051 49.5123 45.6426C49.8948 41.3726 50.0973 35.9476 50.1148 29.5126ZM59.6148 98.4825C59.6373 105.97 59.4073 111.443 59.0823 115.43C58.5298 122.063 53.4948 127.303 47.1348 127.745C44.8998 127.903 42.1798 128.008 38.8698 128.008C36.5073 128.008 33.8448 127.953 30.8448 127.828C23.6448 127.515 18.3673 126.95 14.5073 126.365C8.09983 125.378 2.64233 119.908 1.64233 113.5C1.05733 109.633 0.489827 104.358 0.182327 97.155C-0.125173 89.9525 -0.00017339 84.6975 0.262327 80.865C0.707327 74.5 5.94483 69.4725 12.5873 68.92C16.3948 68.61 21.5873 68.385 28.5873 68.385L29.5248 68.3875C37.0123 68.4075 42.4748 68.67 46.4748 69.03C53.1173 69.6225 58.3823 74.8875 58.9748 81.53C59.3323 85.5175 59.5923 90.995 59.6148 98.4825ZM49.6148 114.63C49.9648 110.315 50.1323 104.888 50.1148 98.4975C50.0973 92.0675 49.8948 86.64 49.5123 82.3675C49.3298 80.305 47.6923 78.6675 45.6298 78.485C41.3648 78.1025 35.9398 77.9 29.4998 77.8825H28.5873V77.885C22.5773 77.885 17.4573 78.0525 13.3648 78.385C11.3773 78.5525 9.85483 79.875 9.73733 81.5275C9.44483 85.75 9.42233 90.8675 9.67233 96.75C9.85785 101.87 10.3118 106.977 11.0323 112.05C11.3923 114.355 13.6373 116.603 15.9423 116.965C21.0192 117.686 26.1304 118.14 31.2548 118.325C33.9448 118.44 36.5098 118.498 38.8698 118.498C41.6498 118.498 44.2073 118.418 46.4748 118.26C48.1148 118.143 49.4498 116.63 49.6148 114.63Z" fill="black"/>
</g>
<defs>
<clipPath id="clip0_138_2">
<rect width="128" height="128" fill="white"/>
</clipPath>
</defs>
</svg>
