<svg width="129" height="129" viewBox="0 0 129 129" fill="none" xmlns="http://www.w3.org/2000/svg">
<g clip-path="url(#clip0_138_9)">
<path d="M90.8949 56.4382C90.483 56.4382 90.0602 56.4974 89.6375 56.6134L84.8599 57.9295L79.8996 45.8445C78.4938 42.421 74.3394 39.6353 70.6388 39.6353H24.2104C20.5093 39.6353 16.3554 42.421 14.9501 45.8445L9.99585 57.9126L5.27739 56.613C4.86815 56.4986 4.44542 56.4397 4.02051 56.4378C1.76227 56.4378 0.123535 58.1629 0.123535 60.5391V63.3553C0.123535 66.1293 2.38084 68.3866 5.1548 68.3866H5.69541L4.8946 70.3372C3.58887 73.5169 2.52597 78.9023 2.52597 82.3414V106.349C2.52597 109.123 4.78328 111.381 7.55724 111.381H14.1281C16.9021 111.381 19.1594 109.123 19.1594 106.349V100.354H75.6893V106.349C75.6893 109.123 77.9466 111.381 80.7206 111.381H87.2905C90.0645 111.381 92.3218 109.123 92.3218 106.349V82.3419C92.3218 78.9033 91.2589 73.5179 89.9532 70.3376L89.1523 68.387H89.7601C92.5341 68.387 94.7914 66.1297 94.7914 63.3558V60.5395C94.7919 58.1634 93.1527 56.4382 90.8949 56.4382ZM13.6026 65.6544L21.1072 47.3752C21.9479 45.3274 24.4466 43.6515 26.6603 43.6515H68.1889C70.4025 43.6515 72.9012 45.3269 73.742 47.3752L81.2466 65.6544C82.0869 67.7022 80.9639 69.3781 78.7502 69.3781H16.0994C13.8853 69.3776 12.7623 67.7022 13.6026 65.6544ZM30.3548 88.7756C30.3532 89.3088 30.1407 89.8196 29.7637 90.1966C29.3867 90.5736 28.8758 90.7861 28.3427 90.7877H14.0868C13.5536 90.7862 13.0426 90.5738 12.6655 90.1968C12.2884 89.8198 12.0758 89.3088 12.0742 88.7756V81.9342C12.0758 81.4009 12.2884 80.89 12.6655 80.513C13.0426 80.136 13.5536 79.9235 14.0868 79.922H28.3427C28.8758 79.9238 29.3866 80.1363 29.7636 80.5133C30.1405 80.8903 30.3531 81.401 30.3548 81.9342V88.7756ZM82.6397 88.7756C82.6381 89.3088 82.4256 89.8196 82.0486 90.1966C81.6716 90.5736 81.1607 90.7861 80.6276 90.7877H66.3717C65.8386 90.786 65.3278 90.5734 64.9508 90.1965C64.5738 89.8195 64.3613 89.3087 64.3596 88.7756V81.9342C64.3613 81.401 64.5738 80.8903 64.9508 80.5133C65.3278 80.1363 65.8386 79.9238 66.3717 79.922H80.6276C81.1607 79.9238 81.6715 80.1363 82.0484 80.5133C82.4254 80.8903 82.638 81.401 82.6397 81.9342V88.7756Z" fill="black"/>
<path d="M121.831 18.5942H98.0013C94.5313 18.5942 91.7085 21.4175 91.7085 24.8871V48.717C91.7085 52.1871 94.5318 55.0103 98.0013 55.0103H107.567V108.494C107.567 109.117 107.815 109.714 108.255 110.155C108.696 110.595 109.293 110.843 109.916 110.843C110.539 110.843 111.136 110.595 111.576 110.155C112.017 109.714 112.264 109.117 112.264 108.494V55.0108H121.831C125.301 55.0108 128.124 52.1875 128.124 48.7175V24.8875C128.124 21.4175 125.301 18.5942 121.831 18.5942ZM116.434 38.3525C115.063 39.5863 113.044 40.212 110.434 40.212H106.983C106.569 40.212 106.232 40.5497 106.232 40.9639V46.7829C106.231 47.0868 106.11 47.3781 105.895 47.593C105.68 47.8078 105.389 47.9286 105.085 47.9289H102.472C102.168 47.9286 101.876 47.8078 101.662 47.593C101.447 47.3781 101.326 47.0868 101.325 46.7829V26.8236C101.326 26.5196 101.446 26.228 101.661 26.013C101.876 25.798 102.168 25.677 102.472 25.6766H109.055C113.416 25.6766 115.044 26.3337 116.382 27.4689C117.792 28.6662 118.507 30.4998 118.507 32.9201C118.507 35.285 117.81 37.112 116.434 38.3525Z" fill="black"/>
<path d="M112.698 30.4957C112.061 30.0147 110.934 29.7705 109.35 29.7705H106.983C106.569 29.7705 106.231 30.1077 106.231 30.5215V35.3039C106.231 35.7177 106.569 36.0549 106.983 36.0549H108.401C108.922 36.0549 109.763 36.0164 110.277 35.9689C110.775 35.9234 112.182 35.7195 112.698 35.3297C113.318 34.861 113.632 34.0503 113.632 32.9207C113.632 31.7803 113.318 30.9644 112.698 30.4957Z" fill="black"/>
</g>
<defs>
<clipPath id="clip0_138_9">
<rect width="128" height="128" fill="white" transform="translate(0.123535 0.987549)"/>
</clipPath>
</defs>
</svg>
