<svg width="128" height="129" viewBox="0 0 128 129" fill="none" xmlns="http://www.w3.org/2000/svg">
<path d="M37.1836 108.16C37.1836 110.287 38.9141 112.018 41.0411 112.018C43.1681 112.018 44.8981 110.288 44.8981 108.16C44.8981 106.033 43.1678 104.303 41.0411 104.303C38.9143 104.303 37.1836 106.033 37.1836 108.16ZM77.5603 109.239H48.8226C48.6879 110.216 48.3689 111.159 47.8826 112.018H78.5008C78.0145 111.159 77.6955 110.216 77.5608 109.239H77.5603ZM56.0001 88.0176H49.6936C48.6907 88.0166 47.7242 88.3934 46.9866 89.0731L43.9656 91.8506H56.0001V88.0176ZM88.0001 84.0176V80.0176H84.0001V84.0176C84.0001 85.1203 84.8973 86.0176 86.0001 86.0176C87.1028 86.0176 88.0001 85.1203 88.0001 84.0176ZM69.5831 88.0176H60.0001V91.8503H75.7568L72.0903 88.9008C71.3792 88.3302 70.4951 88.0187 69.5833 88.0176H69.5831Z" fill="black"/>
<path d="M102 80.0176H92V84.0176C92 87.3258 89.3085 90.0176 86 90.0176C82.6915 90.0176 80 87.3258 80 84.0176V80.0176H26V112.018H34.1995C33.5436 110.86 33.1944 109.554 33.1852 108.224L29.127 106.255C28.7766 106.085 28.4834 105.816 28.2835 105.482C28.0836 105.148 27.9857 104.762 28.0018 104.373L28.3167 96.7231C28.3333 96.3218 28.4702 95.9348 28.7097 95.6124C28.9493 95.29 29.2803 95.0472 29.6597 94.9156L37.7873 92.0968L44.2793 86.1281C45.7546 84.7691 47.6876 84.0156 49.6935 84.0176H69.5833C71.4005 84.0176 73.1813 84.6451 74.5975 85.7841L82.3337 92.0076L93.5328 94.6451C95.0751 95.0057 96.4291 95.925 97.3333 97.2255C98.2376 98.526 98.6278 100.115 98.4287 101.687L97.7038 107.487C97.6433 107.97 97.4083 108.415 97.0428 108.738C96.6774 109.061 96.2067 109.239 95.7193 109.239H93.1233C92.9885 110.216 92.6694 111.159 92.183 112.018H102V80.0176ZM116 40.0176V20.0176H85.1683C85.5387 21.325 85.7864 22.6641 85.9082 24.0176H110C110.53 24.0176 111.039 24.2283 111.414 24.6034C111.789 24.9784 112 25.4871 112 26.0176V34.0176C112 34.548 111.789 35.0567 111.414 35.4318C111.039 35.8069 110.53 36.0176 110 36.0176H83.593C82.8624 37.4425 81.9788 38.7838 80.958 40.0176H116Z" fill="black"/>
<path d="M85.9082 28.0176C85.7864 29.371 85.5387 30.7101 85.1682 32.0176H108V28.0176H85.9082ZM48.3325 105.239H56V95.8501H39.5625C39.4576 95.8494 39.353 95.8404 39.2495 95.8233L32.2575 98.2483L32.0522 103.228L34.2147 104.277C35.569 101.906 38.1205 100.303 41.041 100.303C44.341 100.303 47.1705 102.349 48.3325 105.238V105.239ZM81.4845 108.16C81.4845 110.287 83.2147 112.018 85.3417 112.018C87.4687 112.018 89.199 110.288 89.199 108.16C89.199 106.033 87.4685 104.303 85.3415 104.303C83.2145 104.303 81.4845 106.033 81.4845 108.16Z" fill="black"/>
<path d="M92.6332 105.239H93.9535L94.4595 101.191C94.5344 100.599 94.3874 100 94.0469 99.5106C93.7064 99.0209 93.1965 98.6747 92.6158 98.5388L81.2012 95.8503H60V105.239H78.05C79.2123 102.349 82.0415 100.303 85.3418 100.303C88.642 100.303 91.4712 102.349 92.6332 105.238V105.239ZM14 44.0176V112.018H22V56.0176H20C19.4696 56.0176 18.9609 55.8069 18.5858 55.4318C18.2107 55.0567 18 54.548 18 54.0176V44.0176H14ZM52.796 40.0901C53.2762 40.2217 53.6901 40.5276 53.9567 40.9481C53.971 40.9578 53.9857 40.9663 54 40.9758V36.6231L50.336 31.1271C50.1169 30.7985 50 30.4125 50 30.0176V22.0176C50 21.6226 50.1167 21.2368 50.336 20.9083L54.336 14.9083C54.5186 14.6344 54.766 14.4097 55.0563 14.2543C55.3466 14.0989 55.6707 14.0176 56 14.0176H60C60.5304 14.0176 61.0391 14.2283 61.4142 14.6034C61.7893 14.9784 62 15.4871 62 16.0176V22.0176C62 23.1203 62.8973 24.0176 64 24.0176C65.1027 24.0176 66 23.1203 66 22.0176V16.0176C66 15.4871 66.2107 14.9784 66.5858 14.6034C66.9609 14.2283 67.4696 14.0176 68 14.0176H72C72.3293 14.0176 72.6534 14.0989 72.9437 14.2543C73.234 14.4097 73.4814 14.6344 73.664 14.9083L77.664 20.9083C77.8831 21.2368 78 21.6228 78 22.0176V30.0176C78 30.4126 77.8833 30.7983 77.664 31.1271L74 36.6231V40.9758C78.8203 37.7428 82 32.2451 82 26.0176C82 16.0923 73.925 8.01758 64 8.01758C54.075 8.01758 46 16.0923 46 26.0176C46 31.7096 48.6588 36.7893 52.796 40.0901ZM44.407 36.0176H18C17.4696 36.0176 16.9609 35.8069 16.5858 35.4318C16.2107 35.0567 16 34.548 16 34.0176V26.0176C16 25.4871 16.2107 24.9784 16.5858 24.6034C16.9609 24.2283 17.4696 24.0176 18 24.0176H42.0918C42.2136 22.6641 42.4613 21.325 42.8317 20.0176H12V40.0176H47.0418C46.0209 38.7838 45.1374 37.4425 44.4067 36.0176H44.407ZM8 116.018H120V120.018H8V116.018Z" fill="black"/>
<path d="M20 28.0176V32.0176H42.8317C42.4613 30.7101 42.2136 29.371 42.0918 28.0176H20ZM26 72.0176H102V76.0176H26V72.0176ZM114 44.0176H110V54.0176C110 54.548 109.789 55.0567 109.414 55.4318C109.039 55.8069 108.53 56.0176 108 56.0176H106V112.018H114V44.0176ZM26 56.0176H102V60.0176H26V56.0176ZM26 64.0176H102V68.0176H26V64.0176ZM106 44.0176H76.6345C73.0565 46.5363 68.6982 48.0176 64 48.0176C59.3018 48.0176 54.9435 46.5363 51.3655 44.0176H22V52.0176H106V44.0176ZM57.0703 18.0176L54 22.6231V29.4121L57.664 34.9081C57.8831 35.2366 58 35.6227 58 36.0176V42.9856C59.2936 43.4444 60.6358 43.7525 62 43.9038V34.0176C62 33.4871 62.2107 32.9784 62.5858 32.6034C62.9609 32.2283 63.4696 32.0176 64 32.0176C64.5304 32.0176 65.0391 32.2283 65.4142 32.6034C65.7893 32.9784 66 33.4871 66 34.0176V43.9038C67.3642 43.7525 68.7064 43.4444 70 42.9856V36.0176C70 35.6226 70.1167 35.2368 70.336 34.9081L74 29.4121V22.6231L70.9297 18.0176H70V22.0176C70 25.3258 67.3082 28.0176 64 28.0176C60.6918 28.0176 58 25.3258 58 22.0176V18.0176H57.0703Z" fill="black"/>
</svg>
