<svg width="129" height="129" viewBox="0 0 129 129" fill="none" xmlns="http://www.w3.org/2000/svg">
<path d="M79.4492 74.8651L82.2772 72.0371L85.1052 74.8651L82.2772 77.6931L79.4492 74.8651Z" fill="black"/>
<path d="M11.0035 104.403C10.6747 106.889 11.1331 109.416 12.3142 111.628C13.4953 113.84 15.3397 115.627 17.5883 116.737C19.837 117.847 22.3769 118.224 24.8512 117.817C27.3255 117.409 29.6099 116.236 31.3835 114.463L35.6255 110.221L62.4975 83.3493L65.3255 86.1793C65.7005 86.5543 66.2091 86.7649 66.7395 86.7649C67.2698 86.7649 67.7784 86.5543 68.1535 86.1793L72.3955 81.9373L73.8095 83.3513C74.1845 83.7263 74.6931 83.9369 75.2235 83.9369C75.7538 83.9369 76.2624 83.7263 76.6375 83.3513L79.4675 80.5233L76.6395 77.6933L75.2235 79.1073L63.9115 67.7933L75.2235 56.4813L86.5395 67.7933L85.1255 69.2073L87.9535 72.0353L90.7835 69.2073C91.1584 68.8323 91.369 68.3236 91.369 67.7933C91.369 67.263 91.1584 66.7544 90.7835 66.3793L86.5395 62.1373L107.751 40.9253C108.057 40.6186 108.255 40.2217 108.317 39.7933L109.637 30.5513L113.407 26.7813C113.626 26.5643 113.79 26.2992 113.887 26.0073L114.939 22.8933L118.365 21.5793C118.833 21.4008 119.217 21.0533 119.441 20.6053L122.269 14.9473C122.457 14.5718 122.521 14.1469 122.454 13.7326C122.386 13.3184 122.19 12.9359 121.893 12.6393L116.237 6.98331C115.942 6.68857 115.561 6.49383 115.149 6.42639C114.737 6.35896 114.314 6.42223 113.939 6.60731L108.271 9.43531C107.798 9.67351 107.438 10.09 107.271 10.5933L106.171 13.8873L102.877 14.9873C102.584 15.0854 102.317 15.2504 102.097 15.4693L98.3255 19.2393L89.0835 20.5593C88.6551 20.6214 88.2582 20.8199 87.9515 21.1253L66.7395 42.3373L62.4975 38.0933C62.1224 37.7184 61.6138 37.5077 61.0835 37.5077C60.5531 37.5077 60.0445 37.7184 59.6695 38.0933L45.5275 52.2373C45.1525 52.6124 44.9419 53.121 44.9419 53.6513C44.9419 54.1816 45.1525 54.6903 45.5275 55.0653L46.9415 56.4793L42.6975 60.7213C42.3225 61.0964 42.1119 61.605 42.1119 62.1353C42.1119 62.6656 42.3225 63.1743 42.6975 63.5493L45.5275 66.3773L18.6555 93.2513C18.2805 93.6264 18.0699 94.135 18.0699 94.6653C18.0699 95.1956 18.2805 95.7043 18.6555 96.0793L21.4855 98.9073L20.0715 100.321C18.9466 101.446 18.3147 102.972 18.3147 104.563C18.3147 106.154 18.9466 107.68 20.0715 108.805C21.1966 109.93 22.7225 110.562 24.3135 110.562C25.9044 110.562 27.4303 109.93 28.5555 108.805L29.9695 107.391L31.3835 108.807L28.5555 111.635C27.3736 112.817 25.8515 113.598 24.2027 113.871C22.5539 114.143 20.8613 113.892 19.3624 113.153C17.8636 112.414 16.6337 111.225 15.8454 109.751C15.0572 108.278 14.7502 106.594 14.9675 104.937L11.0035 104.403ZM49.4575 90.7373L46.7195 93.4713L33.1195 84.4493L35.8875 81.6813L49.4575 90.7373ZM38.7655 78.7973L41.5395 76.0213L55.1395 85.0413L52.3395 87.8413L38.7655 78.7973ZM43.8355 96.3573L41.0355 99.1573L27.4575 90.1053L30.2275 87.3373L43.8355 96.3573ZM104.589 18.6313L108.389 17.3633C108.684 17.2651 108.951 17.0998 109.171 16.8804C109.39 16.661 109.555 16.3936 109.653 16.0993L110.805 12.6433L114.435 10.8313L118.051 14.4473L116.215 18.1213L112.635 19.4953C112.361 19.6005 112.112 19.7652 111.908 19.9774C111.704 20.1897 111.55 20.4444 111.455 20.7233L110.255 24.2833L107.759 26.7813L102.103 21.1253L104.589 18.6313ZM72.3955 42.3373L76.6395 46.5813L79.4675 43.7533L75.2235 39.5093L78.0535 36.6813L82.2955 40.9253L85.1235 38.0953L80.8815 33.8533L83.7095 31.0233L87.9515 35.2653L90.7815 32.4373L86.5395 28.1953L89.3695 25.3673L93.6135 29.6093L96.4415 26.7813L93.6115 23.9533L98.5615 23.2473L105.631 30.3173L104.925 35.2673L102.095 32.4373L99.2675 35.2653L103.509 39.5093L100.681 42.3373L96.4395 38.0953L93.6115 40.9253L97.8535 45.1673L95.0235 47.9953L90.7815 43.7533L87.9515 46.5813L92.1955 50.8233L89.3675 53.6533L85.1235 49.4093L82.2955 52.2373L86.5395 56.4813L83.7095 59.3093L69.5675 45.1673L72.3955 42.3373ZM61.0835 42.3373L72.3955 53.6513L61.0835 64.9633L49.7695 53.6513L61.0835 42.3373ZM49.7695 59.3073L69.5695 79.1073L66.7395 81.9373L63.9115 79.1093L49.7695 64.9673L46.9395 62.1373L49.7695 59.3073ZM59.6695 80.5193L58.0335 82.1553L44.4335 73.1333L48.3615 69.2053L59.6695 80.5193ZM24.5675 92.9953L38.1395 102.047L34.2055 105.979L31.3815 103.155L25.7255 97.4993L22.9015 94.6753L24.5675 92.9953ZM25.7275 105.977C25.3471 106.341 24.8409 106.544 24.3145 106.544C23.788 106.544 23.2819 106.341 22.9015 105.977C22.5271 105.602 22.3169 105.094 22.3169 104.564C22.3169 104.034 22.5271 103.526 22.9015 103.151L24.3155 101.737L27.1395 104.563L25.7275 105.977Z" fill="black"/>
</svg>
