<svg width="129" height="129" viewBox="0 0 129 129" fill="none" xmlns="http://www.w3.org/2000/svg">
<path d="M101.002 107.018L78.9024 41.8576H66.7424V47.7376C66.7424 48.2892 66.5233 48.8183 66.1332 49.2084C65.7431 49.5984 65.2141 49.8176 64.6624 49.8176C64.1108 49.8176 63.5817 49.5984 63.1917 49.2084C62.8016 48.8183 62.5824 48.2892 62.5824 47.7376V41.8576H51.2224L30.9824 107.018H62.5824V102.338C62.5824 101.786 62.8016 101.257 63.1917 100.867C63.5817 100.477 64.1108 100.258 64.6624 100.258C65.2141 100.258 65.7431 100.477 66.1332 100.867C66.5233 101.257 66.7424 101.786 66.7424 102.338V107.018H101.002ZM62.5824 58.2576C62.5824 57.7059 62.8016 57.1769 63.1917 56.7868C63.5817 56.3967 64.1108 56.1776 64.6624 56.1776C65.2141 56.1776 65.7431 56.3967 66.1332 56.7868C66.5233 57.1769 66.7424 57.7059 66.7424 58.2576V69.7776C66.7424 70.3292 66.5233 70.8583 66.1332 71.2484C65.7431 71.6384 65.2141 71.8576 64.6624 71.8576C64.1108 71.8576 63.5817 71.6384 63.1917 71.2484C62.8016 70.8583 62.5824 70.3292 62.5824 69.7776V58.2576ZM64.6624 93.8976C64.1118 93.8944 63.5845 93.6743 63.1951 93.2849C62.8057 92.8955 62.5856 92.3683 62.5824 91.8176V80.2976C62.5824 79.7459 62.8016 79.2169 63.1917 78.8268C63.5817 78.4367 64.1108 78.2176 64.6624 78.2176C65.2141 78.2176 65.7431 78.4367 66.1332 78.8268C66.5233 79.2169 66.7424 79.7459 66.7424 80.2976V91.8176C66.7393 92.3683 66.5191 92.8955 66.1297 93.2849C65.7403 93.6743 65.2131 93.8944 64.6624 93.8976ZM71.8224 21.0176H66.7424V23.8576H72.7824L71.8224 21.0176ZM57.7024 21.0176L56.8224 23.8576H62.5824V21.0176H57.7024ZM37.0424 41.8576H47.0424L26.7824 107.018H11.4824C10.4224 107.018 9.76244 105.418 10.3024 104.158L37.0424 41.8576ZM53.5224 21.0176L52.6424 23.8576H44.7624L45.5824 21.9376C45.6687 21.6863 45.8262 21.4656 46.0357 21.3023C46.2453 21.1389 46.4977 21.04 46.7624 21.0176H53.5224ZM84.5624 23.8576H77.0024L76.0424 21.0176H82.5624C82.8271 21.04 83.0796 21.1389 83.2891 21.3023C83.4986 21.4656 83.6561 21.6863 83.7424 21.9376L84.5624 23.8576ZM117.842 107.018H105.242L83.1224 41.8576H92.2824L119.022 104.158C119.562 105.418 118.902 107.018 117.842 107.018ZM14.2824 31.8576H36.6624V37.8576H14.2824C14.1696 37.8572 14.0592 37.8251 13.9637 37.765C13.8682 37.7049 13.7915 37.6192 13.7424 37.5176C13.6862 37.4354 13.6581 37.3371 13.6624 37.2376V32.4576C13.6632 32.3773 13.6799 32.298 13.7116 32.2242C13.7433 32.1505 13.7893 32.0838 13.847 32.0279C13.9047 31.9721 13.9729 31.9283 14.0476 31.8991C14.1224 31.8698 14.2022 31.8557 14.2824 31.8576ZM115.662 32.4576V37.2376C115.667 37.3309 115.639 37.4228 115.582 37.4976V37.5176C115.533 37.6192 115.457 37.7049 115.361 37.765C115.266 37.8251 115.155 37.8572 115.042 37.8576H92.6624V31.8576H115.042C115.123 31.8557 115.203 31.8698 115.277 31.8991C115.352 31.9283 115.42 31.9721 115.478 32.0279C115.536 32.0838 115.582 32.1505 115.613 32.2242C115.645 32.298 115.662 32.3773 115.662 32.4576ZM17.6624 41.8576V77.0176C17.6624 77.548 17.4517 78.0567 17.0767 78.4318C16.7016 78.8069 16.1929 79.0176 15.6624 79.0176C15.132 79.0176 14.6233 78.8069 14.2482 78.4318C13.8732 78.0567 13.6624 77.548 13.6624 77.0176V41.8176C13.8624 41.8376 14.0824 41.8576 14.2824 41.8576H17.6624ZM115.662 41.8176V77.0176C115.662 77.548 115.452 78.0567 115.077 78.4318C114.702 78.8069 114.193 79.0176 113.662 79.0176C113.132 79.0176 112.623 78.8069 112.248 78.4318C111.873 78.0567 111.662 77.548 111.662 77.0176V41.8576H115.042C115.242 41.8576 115.462 41.8376 115.662 41.8176ZM86.6624 27.8576H42.6624C42.3996 27.8568 42.1391 27.908 41.8961 28.0082C41.6531 28.1084 41.4323 28.2557 41.2465 28.4416C41.0606 28.6275 40.9133 28.8483 40.8131 29.0913C40.7128 29.3343 40.6616 29.5947 40.6624 29.8576V37.8576H88.6624V29.8576C88.6632 29.5947 88.612 29.3343 88.5118 29.0913C88.4116 28.8483 88.2643 28.6275 88.0784 28.4416C87.8925 28.2557 87.6718 28.1084 87.4287 28.0082C87.1857 27.908 86.9253 27.8568 86.6624 27.8576ZM48.8364 34.8576C48.4409 34.8576 48.0542 34.7403 47.7253 34.5205C47.3964 34.3008 47.1401 33.9884 46.9887 33.6229C46.8373 33.2575 46.7977 32.8554 46.8749 32.4674C46.952 32.0794 47.1425 31.7231 47.4222 31.4434C47.7019 31.1637 48.0583 30.9732 48.4463 30.896C48.8342 30.8188 49.2364 30.8584 49.6018 31.0098C49.9673 31.1612 50.2796 31.4175 50.4994 31.7464C50.7191 32.0753 50.8364 32.462 50.8364 32.8576C50.8364 33.388 50.6257 33.8967 50.2507 34.2718C49.8756 34.6469 49.3669 34.8576 48.8364 34.8576ZM59.3864 34.8576C58.9909 34.8576 58.6042 34.7403 58.2753 34.5205C57.9464 34.3008 57.6901 33.9884 57.5387 33.6229C57.3873 33.2575 57.3477 32.8554 57.4249 32.4674C57.502 32.0794 57.6925 31.7231 57.9722 31.4434C58.2519 31.1637 58.6083 30.9732 58.9963 30.896C59.3842 30.8188 59.7864 30.8584 60.1518 31.0098C60.5173 31.1612 60.8296 31.4175 61.0494 31.7464C61.2691 32.0753 61.3864 32.462 61.3864 32.8576C61.3864 33.388 61.1757 33.8967 60.8007 34.2718C60.4256 34.6469 59.9169 34.8576 59.3864 34.8576ZM69.9384 34.8576C69.5429 34.8576 69.1562 34.7403 68.8273 34.5205C68.4984 34.3008 68.2421 33.9884 68.0907 33.6229C67.9393 33.2575 67.8997 32.8554 67.9769 32.4674C68.054 32.0794 68.2445 31.7231 68.5242 31.4434C68.8039 31.1637 69.1603 30.9732 69.5483 30.896C69.9362 30.8188 70.3384 30.8584 70.7038 31.0098C71.0693 31.1612 71.3816 31.4175 71.6014 31.7464C71.8211 32.0753 71.9384 32.462 71.9384 32.8576C71.9384 33.388 71.7277 33.8967 71.3527 34.2718C70.9776 34.6469 70.4689 34.8576 69.9384 34.8576ZM80.4884 34.8576C80.0929 34.8576 79.7062 34.7403 79.3773 34.5205C79.0484 34.3008 78.7921 33.9884 78.6407 33.6229C78.4893 33.2575 78.4497 32.8554 78.5269 32.4674C78.604 32.0794 78.7945 31.7231 79.0742 31.4434C79.3539 31.1637 79.7103 30.9732 80.0983 30.896C80.4862 30.8188 80.8884 30.8584 81.2538 31.0098C81.6193 31.1612 81.9316 31.4175 82.1514 31.7464C82.3711 32.0753 82.4884 32.462 82.4884 32.8576C82.4884 33.388 82.2777 33.8967 81.9026 34.2718C81.5276 34.6469 81.0189 34.8576 80.4884 34.8576Z" fill="black"/>
</svg>
