<svg width="129" height="129" viewBox="0 0 129 129" fill="none" xmlns="http://www.w3.org/2000/svg">
<g clip-path="url(#clip0_91_23)">
<path d="M25.3235 57.3029C22.7235 57.3029 20.5235 59.5029 20.5235 62.1029C20.5235 62.7029 20.7235 63.3029 20.9235 63.9029C21.7235 65.7029 23.3235 66.9029 25.3235 66.9029C27.9235 66.9029 30.1235 64.7029 30.1235 62.1029C30.1235 59.5029 27.9235 57.3029 25.3235 57.3029ZM73.5235 57.3029C70.9235 57.3029 68.7235 59.5029 68.7235 62.1029C68.7235 64.7029 70.9235 66.9029 73.5235 66.9029C76.1235 66.9029 78.3235 64.7029 78.3235 62.1029C78.3235 59.5029 76.1235 57.3029 73.5235 57.3029ZM86.7235 53.9029C79.7235 50.3029 71.5235 48.7029 61.5235 49.3029C60.1235 49.3029 58.7235 48.9029 57.7235 48.1029L55.7235 46.7029C49.1235 41.1029 46.1235 38.5029 38.5235 39.5029C32.1235 39.7029 28.9235 41.3029 23.3235 43.9029C20.9235 45.1029 18.3235 46.3029 14.9235 47.7029C14.3235 47.9029 13.5235 48.1029 12.7235 48.1029H9.92354C9.32354 48.1029 8.92354 48.5029 8.92354 48.9029L8.32354 51.7029C8.12354 52.9029 7.32354 53.9029 6.52354 54.7029C6.32354 54.9029 6.12354 55.3029 6.12354 55.7029L6.52354 58.3029C6.52354 58.7029 6.92354 59.1029 7.32354 59.1029L14.5235 62.7029H16.3235V62.1029C16.3235 57.1029 20.3235 53.1029 25.3235 53.1029C30.3235 53.1029 34.3235 57.1029 34.3235 62.1029V62.7029H64.5235V62.1029C64.5235 57.1029 68.5235 53.1029 73.5235 53.1029C78.5235 53.1029 82.5235 57.1029 82.5235 62.1029H86.1235C86.7235 62.1029 87.1235 61.7029 87.1235 61.1029V55.1029C87.3235 54.5029 87.1235 54.3029 86.7235 53.9029Z" fill="black"/>
<path d="M30.1233 77.7029C27.5233 77.7029 25.3233 78.7029 23.5233 80.3029C21.9233 81.9029 20.9233 84.3029 20.9233 86.7029C20.9233 91.7029 25.1233 95.9029 30.1233 95.9029C35.1233 95.9029 39.3233 91.7029 39.3233 86.7029C39.1233 81.7029 35.1233 77.7029 30.1233 77.7029ZM105.923 77.7029C100.923 77.7029 96.7233 81.9029 96.7233 86.9029C96.7233 91.9029 100.923 96.1029 105.923 96.1029C110.923 96.1029 115.123 91.9029 115.123 86.9029C115.123 81.7029 110.923 77.7029 105.923 77.7029ZM124.123 65.3029H127.523C127.923 65.3029 128.323 65.3029 128.723 65.5029V57.9029C128.723 57.1029 128.523 56.5029 128.323 55.9029L120.923 37.3029C119.923 34.9029 117.723 33.5029 115.323 33.5029H105.323C102.923 33.5029 101.123 35.3029 101.123 37.7029V67.7029C101.123 68.9029 100.123 69.9029 98.9233 69.9029H5.12334C2.72334 69.9029 0.92334 71.7029 0.92334 74.1029V80.7029C0.92334 82.9029 2.72334 84.7029 4.92334 84.7029H16.7233C17.7233 78.3029 23.3233 73.3029 29.9233 73.3029C36.5233 73.3029 42.1233 78.3029 43.1233 84.7029H92.5233C93.5233 78.3029 99.1233 73.3029 105.723 73.3029C112.323 73.3029 117.923 78.3029 118.923 84.7029H124.923C127.123 84.7029 128.923 82.9029 128.923 80.7029V77.5029C128.523 77.7029 128.123 77.7029 127.723 77.7029H127.523C124.723 77.7029 122.323 76.7029 120.323 74.7029C118.723 73.1029 118.323 70.9029 119.123 68.9029C119.923 66.7029 121.923 65.3029 124.123 65.3029ZM109.923 68.5029C109.923 69.7029 108.923 70.7029 107.723 70.7029C106.523 70.7029 105.523 69.7029 105.523 68.5029V64.5029C105.523 63.3029 106.523 62.3029 107.723 62.3029C108.923 62.3029 109.923 63.3029 109.923 64.5029V68.5029ZM111.923 59.5029C108.523 59.5029 105.723 56.7029 105.723 53.3029V43.5029C105.723 40.1029 108.523 37.3029 111.923 37.3029H117.123C118.323 37.3029 119.323 38.3029 119.323 39.5029C119.323 40.7029 118.323 41.7029 117.123 41.7029H111.923C110.723 41.7029 109.923 42.5029 109.923 43.7029V53.5029C109.923 54.7029 110.723 55.5029 111.923 55.5029H124.523C125.723 55.5029 126.723 56.5029 126.723 57.7029C126.723 58.9029 125.723 59.9029 124.523 59.9029H111.923V59.5029ZM127.723 69.5029H124.323C123.723 69.5029 123.323 69.9029 123.123 70.3029C122.923 70.5029 122.923 71.1029 123.323 71.5029C124.523 72.7029 125.923 73.3029 127.523 73.3029H127.723C128.523 73.3029 128.923 72.7029 128.923 72.1029V70.7029C128.923 70.1029 128.323 69.5029 127.723 69.5029Z" fill="black"/>
</g>
<defs>
<clipPath id="clip0_91_23">
<rect width="128" height="128" fill="white" transform="translate(0.92334 0.702881)"/>
</clipPath>
</defs>
</svg>
