<svg width="129" height="129" viewBox="0 0 129 129" fill="none" xmlns="http://www.w3.org/2000/svg">
<path d="M115.748 59.5852L102.548 57.4118L75.7346 56.8518L78.7746 63.9452C78.9143 64.2705 78.919 64.638 78.7878 64.9668C78.6565 65.2956 78.4 65.5588 78.0746 65.6985C77.7493 65.8382 77.3818 65.8429 77.053 65.7116C76.7242 65.5803 76.461 65.3238 76.3213 64.9985C72.6013 56.3318 72.868 56.9985 72.8413 56.7985C57.788 56.4785 65.2946 56.5452 38.8413 56.5452C37.3261 56.5638 35.8354 56.1623 34.5346 55.3852L29.0146 51.9585C21.9613 54.5585 25.5346 53.8785 7.4813 55.2652C6.42001 55.3523 5.42017 55.7988 4.64687 56.5309C3.87357 57.263 3.37306 58.2369 3.22797 59.2918C2.42797 65.7052 2.26797 66.5452 2.3213 67.5318H10.8946C12.4439 64.689 14.9255 62.4669 17.9215 61.2398C20.9175 60.0127 24.2449 59.8556 27.3432 60.7949C30.4415 61.7343 33.1215 63.7127 34.9316 66.397C36.7418 69.0812 37.5716 72.3073 37.2813 75.5318H39.948L43.948 70.0252C44.3404 69.488 44.854 69.0511 45.4471 68.7499C46.0403 68.4487 46.6961 68.2918 47.3613 68.2918H74.348C75.0138 68.2937 75.6696 68.4543 76.2609 68.7604C76.8523 69.0665 77.362 69.5092 77.748 70.0518L81.748 75.5585H89.4546C89.1643 72.334 89.9941 69.1079 91.8043 66.4236C93.6145 63.7394 96.2944 61.761 99.3927 60.8216C102.491 59.8822 105.818 60.0393 108.814 61.2664C111.81 62.4935 114.292 64.7156 115.841 67.5585H126.201C125.247 65.4739 123.794 63.6561 121.971 62.2656C120.148 60.8751 118.011 59.9546 115.748 59.5852ZM39.108 68.7185C38.9478 68.7895 38.7752 68.8283 38.6 68.8325C38.4248 68.8368 38.2505 68.8065 38.087 68.7433C37.9236 68.6802 37.7741 68.5854 37.6473 68.4645C37.5205 68.3435 37.4188 68.1988 37.348 68.0385C35.9638 64.9196 33.5871 62.346 30.588 60.7185C30.2768 60.5505 30.0451 60.2658 29.9438 59.927C29.8425 59.5882 29.88 59.223 30.048 58.9118C30.2159 58.6006 30.5007 58.3689 30.8395 58.2677C31.1783 58.1664 31.5435 58.2039 31.8546 58.3718C35.3975 60.2706 38.211 63.2903 39.8546 66.9585C39.9237 67.1228 39.9592 67.2993 39.9589 67.4775C39.9587 67.6558 39.9227 67.8321 39.8531 67.9962C39.7834 68.1603 39.6816 68.3088 39.5537 68.4328C39.4257 68.5569 39.2741 68.654 39.108 68.7185ZM45.7746 62.8385H42.8146C42.461 62.8385 42.1219 62.698 41.8718 62.448C41.6218 62.1979 41.4813 61.8588 41.4813 61.5052C41.4813 61.1515 41.6218 60.8124 41.8718 60.5624C42.1219 60.3123 42.461 60.1718 42.8146 60.1718H45.8146C46.1683 60.1718 46.5074 60.3123 46.7574 60.5624C47.0075 60.8124 47.148 61.1515 47.148 61.5052C47.148 61.8588 47.0075 62.1979 46.7574 62.448C46.5074 62.698 46.1683 62.8385 45.8146 62.8385H45.7746ZM93.4546 62.5185C90.7974 64.7777 88.9834 67.87 88.308 71.2918C88.239 71.6455 88.0324 71.9572 87.7336 72.1585C87.4348 72.3598 87.0683 72.4341 86.7146 72.3652C86.361 72.2962 86.0493 72.0896 85.848 71.7908C85.6467 71.492 85.5724 71.1255 85.6413 70.7718C86.4442 66.7646 88.5716 63.1438 91.6813 60.4918C91.9501 60.262 92.2991 60.1483 92.6517 60.1758C93.0042 60.2033 93.3314 60.3697 93.5613 60.6385C93.7912 60.9072 93.9048 61.2563 93.8773 61.6089C93.8498 61.9614 93.6834 62.2886 93.4146 62.5185H93.4546ZM2.82797 70.1985C3.35354 71.5526 4.22023 72.7479 5.34393 73.6684C6.46763 74.5888 7.81018 75.2032 9.2413 75.4518C9.09371 73.6819 9.27913 71.9001 9.78797 70.1985H2.82797ZM116.935 70.1985C117.445 71.9271 117.626 73.7363 117.468 75.5318H121.468C122.175 75.5424 122.877 75.4123 123.534 75.149C124.19 74.8858 124.787 74.4946 125.291 73.9983C125.795 73.502 126.195 72.9105 126.468 72.2581C126.741 71.6058 126.881 70.9057 126.881 70.1985H116.935Z" fill="black"/>
<path d="M71.4813 54.052V47.652C67.8211 46.6273 64.042 46.0893 60.2413 46.052C53.7746 45.972 50.5213 45.7587 45.4813 46.612V53.8253C63.9613 53.8787 58.1346 53.8253 71.4813 54.052ZM74.1479 48.5453V54.1587L89.1079 54.4653C75.4013 48.9853 75.7213 49.0787 74.1479 48.5453ZM42.8146 53.8787V47.212C39.1783 48.1305 35.6134 49.3114 32.1479 50.7453C37.9879 54.3187 36.4146 53.8787 42.8146 53.8787ZM23.2279 62.8253C20.97 62.8227 18.7621 63.4898 16.8834 64.7424C15.0047 65.9949 13.5398 67.7765 12.6739 69.8617C11.808 71.947 11.5801 74.2423 12.019 76.4571C12.4578 78.672 13.5438 80.7069 15.1394 82.3044C16.7351 83.9019 18.7687 84.9903 20.9831 85.4317C23.1974 85.8732 25.4929 85.648 27.5792 84.7845C29.6655 83.921 31.4488 82.4582 32.7035 80.581C33.9582 78.7038 34.6279 76.4966 34.6279 74.2387C34.6279 71.214 33.4273 68.313 31.2898 66.1729C29.1522 64.0329 26.2526 62.8289 23.2279 62.8253ZM23.2279 81.2787C21.8318 81.2813 20.4663 80.8696 19.3043 80.0955C18.1424 79.3215 17.2362 78.2201 16.7007 76.9307C16.1652 75.6413 16.0244 74.222 16.2962 72.8526C16.5679 71.4831 17.2399 70.2251 18.2272 69.2379C19.2144 68.2507 20.4724 67.5786 21.8418 67.3069C23.2113 67.0352 24.6306 67.176 25.92 67.7115C27.2093 68.247 28.3108 69.1531 29.0848 70.315C29.8588 71.477 30.2706 72.8425 30.2679 74.2387C30.2644 76.1047 29.5216 77.8933 28.2021 79.2128C26.8826 80.5323 25.094 81.2752 23.2279 81.2787Z" fill="black"/>
<path d="M23.228 69.8519C22.3604 69.8519 21.5123 70.1091 20.7909 70.5912C20.0695 71.0732 19.5072 71.7583 19.1752 72.5598C18.8432 73.3614 18.7563 74.2434 18.9256 75.0943C19.0949 75.9453 19.5126 76.7269 20.1261 77.3404C20.7396 77.9539 21.5213 78.3717 22.3722 78.5409C23.2231 78.7102 24.1051 78.6233 24.9067 78.2913C25.7082 77.9593 26.3933 77.397 26.8754 76.6756C27.3574 75.9543 27.6146 75.1061 27.6146 74.2385C27.6146 73.0751 27.1525 71.9594 26.3298 71.1367C25.5072 70.314 24.3914 69.8519 23.228 69.8519ZM103.455 62.8252C101.197 62.8226 98.9888 63.4897 97.1101 64.7422C95.2314 65.9947 93.7665 67.7763 92.9006 69.8616C92.0347 71.9469 91.8068 74.2421 92.2457 76.457C92.6845 78.6718 93.7705 80.7067 95.3662 82.3043C96.9618 83.9018 98.9954 84.9901 101.21 85.4316C103.424 85.873 105.72 85.6478 107.806 84.7844C109.892 83.9209 111.676 82.458 112.93 80.5808C114.185 78.7036 114.855 76.4964 114.855 74.2385C114.856 72.7403 114.563 71.2565 113.991 69.8718C113.419 68.4872 112.579 67.2289 111.52 66.1689C110.462 65.1089 109.204 64.268 107.82 63.6942C106.436 63.1205 104.953 62.8252 103.455 62.8252ZM103.455 81.2785C102.059 81.2785 100.695 80.8645 99.5346 80.0889C98.3744 79.3133 97.4704 78.2109 96.937 76.9213C96.4035 75.6317 96.2646 74.2128 96.5378 72.8443C96.8111 71.4757 97.4842 70.2189 98.4719 69.233C99.4597 68.2471 100.718 67.5764 102.087 67.3058C103.456 67.0351 104.874 67.1767 106.163 67.7126C107.452 68.2485 108.552 69.1546 109.326 70.3163C110.099 71.478 110.511 72.843 110.508 74.2385C110.501 76.1058 109.755 77.8944 108.434 79.2135C107.112 80.5326 105.322 81.275 103.455 81.2785Z" fill="black"/>
<path d="M103.455 69.8519C102.587 69.8519 101.739 70.1092 101.018 70.5912C100.296 71.0732 99.7341 71.7583 99.4021 72.5598C99.0701 73.3614 98.9832 74.2434 99.1525 75.0944C99.3217 75.9453 99.7395 76.7269 100.353 77.3404C100.966 77.9539 101.748 78.3717 102.599 78.5409C103.45 78.7102 104.332 78.6233 105.134 78.2913C105.935 77.9593 106.62 77.397 107.102 76.6757C107.584 75.9543 107.842 75.1062 107.842 74.2386C107.842 73.0751 107.379 71.9594 106.557 71.1367C105.734 70.314 104.618 69.8519 103.455 69.8519ZM74.3482 70.9986H47.3882C47.1419 70.9996 46.8992 71.058 46.6793 71.169C46.4595 71.2801 46.2685 71.4409 46.1215 71.6386L43.2815 75.6386H78.4415L75.5882 71.6386C75.4461 71.4422 75.2599 71.2819 75.0445 71.1708C74.8291 71.0596 74.5906 71.0006 74.3482 70.9986ZM4.36152 49.4786H8.42818L9.41485 52.3852L15.9215 51.8785L15.0948 49.4786H16.5615C16.9524 49.484 17.3402 49.4087 17.7007 49.2573C18.0611 49.106 18.3864 48.8818 18.6562 48.599C18.926 48.3161 19.1345 47.9805 19.2687 47.6133C19.4028 47.2461 19.4597 46.8552 19.4358 46.465C19.4119 46.0748 19.3076 45.6938 19.1296 45.3457C18.9516 44.9976 18.7037 44.6901 18.4013 44.4423C18.099 44.1945 17.7487 44.0118 17.3725 43.9056C16.9963 43.7994 16.6021 43.772 16.2148 43.8252L4.08152 45.3186C3.56711 45.3995 3.10132 45.6692 2.77512 46.0751C2.44891 46.481 2.2857 46.9939 2.31735 47.5137C2.349 48.0335 2.57325 48.5228 2.9463 48.8861C3.31935 49.2494 3.81442 49.4606 4.33485 49.4786H4.36152Z" fill="black"/>
</svg>
