<svg width="129" height="129" viewBox="0 0 129 129" fill="none" xmlns="http://www.w3.org/2000/svg">
<path d="M85.7047 24.4726C85.4017 24.2734 85.0616 24.1374 84.7047 24.0726C85.0573 24.1516 85.3949 24.2866 85.7047 24.4726ZM84.1447 20.0126H83.8647C84.1711 19.9926 84.4784 19.9926 84.7847 20.0126C84.5719 19.9927 84.3576 19.9927 84.1447 20.0126ZM84.0247 24.0126H84.6647C84.492 23.9929 84.3175 23.9929 84.1447 24.0126H84.0247Z" fill="black"/>
<path d="M112.505 94.6728L94.3249 11.8128C94.1401 10.9308 93.7815 10.0945 93.2698 9.35276C92.7581 8.61101 92.1037 7.9787 91.3449 7.49279C90.5944 7.00924 89.7549 6.68053 88.8757 6.52598C87.9965 6.37142 87.0952 6.39414 86.2249 6.59279L19.5849 21.1528C18.6358 21.3526 17.7417 21.7567 16.9646 22.3369C16.1875 22.9172 15.5461 23.6596 15.0849 24.5128C14.3478 25.1947 13.7689 26.0296 13.3888 26.9591C13.0088 27.8885 12.8367 28.8898 12.8849 29.8928L16.5049 116.513C16.5336 117.427 16.7448 118.326 17.1261 119.157C17.5073 119.988 18.0509 120.735 18.7249 121.353C20.0132 122.549 21.7066 123.214 23.4649 123.213H23.7449L88.0849 120.573C89.8733 120.481 91.559 119.709 92.797 118.415C94.0351 117.122 94.7319 115.403 94.7449 113.613L94.4249 105.613L107.325 102.793C109.079 102.386 110.604 101.309 111.573 99.7904C112.541 98.2722 112.876 96.4349 112.505 94.6728ZM87.8249 116.573L23.5049 119.213C22.7157 119.228 21.9503 118.942 21.3649 118.413C20.7994 117.895 20.4555 117.178 20.4049 116.413L16.8649 29.7528C16.8437 29.2883 16.9322 28.8253 17.1233 28.4014C17.3144 27.9774 17.6027 27.6045 17.9649 27.3128C18.4566 26.9076 19.0681 26.6757 19.7049 26.6528L84.0249 24.0328C84.581 23.9696 85.1425 24.0889 85.6249 24.3728C85.8227 24.4961 86.0042 24.6439 86.1649 24.8128C86.5236 25.151 86.7977 25.569 86.9649 26.0328C87.0535 26.3042 87.1007 26.5873 87.1049 26.8728L90.2849 104.093L90.6649 113.473C90.6974 114.26 90.4169 115.028 89.8847 115.609C89.3525 116.19 88.6119 116.536 87.8249 116.573ZM106.385 98.9128L94.1849 101.573L91.1049 26.7128C91.0758 25.7969 90.8624 24.8963 90.4776 24.0648C90.0927 23.2332 89.5442 22.4877 88.8649 21.8728C88.618 21.6501 88.3575 21.443 88.0849 21.2528C87.5932 20.9273 87.0623 20.6652 86.5049 20.4728C86.1384 20.3434 85.7644 20.2365 85.3849 20.1528C84.8745 20.0814 84.3602 20.0414 83.8449 20.0328L34.1649 22.0328L87.0849 10.4928C87.4515 10.4044 87.8322 10.3905 88.2043 10.4519C88.5764 10.5133 88.9325 10.6486 89.2513 10.85C89.5702 11.0514 89.8454 11.3148 90.0608 11.6244C90.2761 11.9341 90.4271 12.2837 90.5049 12.6528L108.505 95.5128C108.673 96.2447 108.544 97.0132 108.147 97.6504C107.749 98.2875 107.116 98.7414 106.385 98.9128Z" fill="black"/>
<path d="M39.105 44.5327C39.245 45.0727 39.385 45.6127 39.505 46.1327L39.105 44.5327ZM60.825 70.5927V70.7527C60.8164 70.6997 60.8164 70.6457 60.825 70.5927ZM43.605 70.5927C43.6132 70.639 43.6132 70.6864 43.605 70.7327V70.5927ZM39.425 70.9127C39.434 70.8129 39.434 70.7125 39.425 70.6127V70.9127ZM59.745 57.0327V62.2527V60.8127C59.665 59.5527 59.685 58.2927 59.745 57.0327Z" fill="black"/>
<path d="M74.6447 47.2328C72.7868 43.5634 70.0357 40.4203 66.6447 38.0928C62.5158 35.1552 57.5719 33.5818 52.5047 33.5928C47.5029 33.6064 42.6224 35.1334 38.5047 37.9728L38.3647 38.0928C35.0455 40.4605 32.3487 43.5965 30.5047 47.2328C28.7887 50.6747 27.892 54.4669 27.8847 58.3128C27.862 62.1128 28.7465 65.8634 30.4647 69.2528C32.3308 72.9604 35.0777 76.1536 38.4647 78.5528L38.5847 78.6528C42.7024 81.4923 47.5829 83.0192 52.5847 83.0328C57.2228 83.0499 61.7687 81.7382 65.6847 79.2528L66.0847 79.0128C69.7458 76.6567 72.7086 73.3624 74.6647 69.4728C76.4007 66.0195 77.3049 62.208 77.3049 58.3428C77.3049 54.4777 76.4007 50.6662 74.6647 47.2128L74.6447 47.2328ZM66.5047 42.9128C67.5417 43.8623 68.4798 44.9143 69.3047 46.0528H65.5247C65.8047 45.0928 66.1447 44.0528 66.5047 42.9128ZM63.8447 55.4928C63.8447 55.1528 64.1847 52.3128 64.2647 51.8928C64.3447 51.4728 64.5847 50.0928 64.5847 50.0528H71.5847C72.6903 52.6384 73.2618 55.4208 73.2647 58.2328C73.2778 61.0829 72.6918 63.9038 71.5447 66.5128H64.1647C64.1647 66.5128 63.9847 65.0528 63.9247 64.4128C63.7847 63.1528 63.7047 61.9128 63.6847 60.6528C63.6847 60.3128 63.7847 56.0128 63.8447 55.5728V55.4928ZM54.5047 37.6728C57.5546 37.9616 60.5005 38.9322 63.1247 40.5128C62.4383 42.3534 61.8508 44.2295 61.3647 46.1328H54.5047V37.6728ZM54.5047 50.1328H60.5047C60.3847 50.7928 60.1447 52.3328 60.1447 52.4328C60.0247 53.2128 59.9447 53.9728 59.8847 54.7528C59.8247 55.5328 59.7447 56.2728 59.7247 57.0328V62.2528C59.7247 62.2528 59.7247 63.2128 59.8247 63.7128C59.8247 64.6728 60.0047 65.7128 60.1247 66.5928H54.5047V50.1328ZM44.9447 55.7728C44.9447 54.8728 44.4447 50.6328 44.3647 50.1328H50.5047V66.5928H44.3847C44.3847 65.9928 44.7047 64.0928 44.7447 63.7328C44.7847 63.3728 45.0047 60.3128 45.0247 59.5328C45.0247 59.1728 45.0247 56.6728 44.9647 55.7728H44.9447ZM50.5047 37.7728V46.2328H43.6247C43.1802 44.3136 42.6395 42.4178 42.0047 40.5528C44.5958 38.9881 47.4961 38.0054 50.5047 37.6728V37.7728ZM38.5047 43.0528L38.9847 44.6328L39.4047 46.2328H35.7647C36.597 45.0274 37.5558 43.9145 38.6247 42.9128L38.5047 43.0528ZM33.3447 50.2328H40.2247C40.2247 50.3328 40.4247 51.4528 40.4647 51.9128C40.6047 52.8728 40.7047 53.9128 40.7647 54.8128C40.901 56.3822 40.9477 57.9581 40.9047 59.5328C40.9047 60.1528 40.6247 63.6928 40.5647 64.2728C40.5047 64.8528 40.2647 66.4928 40.2247 66.6928H33.5047C32.3576 64.0838 31.7716 61.2629 31.7847 58.4128C31.7741 55.5671 32.3458 52.7493 33.4647 50.1328L33.3447 50.2328ZM35.6847 70.6928H39.5047C39.5047 70.6928 38.6847 73.6128 38.6247 73.8128C37.5823 72.8337 36.6378 71.7553 35.8047 70.5928L35.6847 70.6928ZM43.4847 70.6928H50.5047V78.9128C47.497 78.6138 44.59 77.6652 41.9847 76.1328C41.9847 76.1328 43.6047 70.6328 43.6047 70.5928L43.4847 70.6928ZM54.5047 78.9128V70.5928H60.8047C60.8047 70.5928 61.4247 73.3928 61.7447 74.4728C61.9047 75.0928 62.3447 76.4728 62.3647 76.4728C59.9346 77.8046 57.2617 78.6343 54.5047 78.9128ZM65.8247 74.1728C65.4647 72.9528 65.1447 71.7328 64.8847 70.5328H69.2447C68.2575 71.8929 67.1166 73.1344 65.8447 74.2328L65.8247 74.1728Z" fill="black"/>
<path d="M64.1447 66.3728V66.5928C64.1447 66.6728 64.1647 66.4528 64.1447 66.3728ZM44.5047 50.1328C44.5047 50.6328 44.6647 51.1128 44.7247 51.6128C44.5047 51.1128 44.5047 50.6328 44.5047 50.1328ZM46.9447 92.3528C46.4143 92.3528 45.9055 92.1421 45.5305 91.767C45.1554 91.3919 44.9447 90.8832 44.9447 90.3528C44.9447 89.8224 45.1554 89.3137 45.5305 88.9386C45.9055 88.5635 46.4143 88.3528 46.9447 88.3528L77.8047 87.1128C78.3351 87.0916 78.8523 87.282 79.2423 87.642C79.6324 88.0021 79.8635 88.5024 79.8847 89.0328C79.9059 89.5632 79.7155 90.0804 79.3555 90.4705C78.9954 90.8605 78.4951 91.0916 77.9647 91.1128L47.1047 92.3728L46.9447 92.3528ZM29.8047 93.0328C29.2743 93.0328 28.7655 92.8221 28.3905 92.447C28.0154 92.0719 27.8047 91.5632 27.8047 91.0328C27.8047 90.5024 28.0154 89.9937 28.3905 89.6186C28.7655 89.2435 29.2743 89.0328 29.8047 89.0328L37.6247 88.7328C37.8873 88.7223 38.1495 88.7636 38.3961 88.8544C38.6428 88.9452 38.8692 89.0837 39.0623 89.262C39.2555 89.4403 39.4116 89.6549 39.5218 89.8935C39.632 90.1322 39.6942 90.3902 39.7047 90.6528C39.7152 90.9155 39.6739 91.1776 39.5831 91.4243C39.4923 91.6709 39.3538 91.8973 39.1755 92.0905C38.9972 92.2836 38.7826 92.4397 38.544 92.55C38.3053 92.6602 38.0473 92.7223 37.7847 92.7328L29.9647 93.0528L29.8047 93.0328ZM67.1847 100.913C66.6543 100.913 66.1455 100.702 65.7705 100.327C65.3954 99.952 65.1847 99.4432 65.1847 98.9128C65.1847 98.3824 65.3954 97.8737 65.7705 97.4986C66.1455 97.1235 66.6543 96.9128 67.1847 96.9128L77.8047 96.4728C78.0673 96.4623 78.3295 96.5036 78.5761 96.5944C78.8228 96.6852 79.0492 96.8237 79.2423 97.002C79.4355 97.1803 79.5916 97.3949 79.7018 97.6335C79.812 97.8722 79.8742 98.1302 79.8847 98.3928C79.8952 98.6555 79.8539 98.9176 79.7631 99.1643C79.6723 99.4109 79.5338 99.6373 79.3555 99.8305C79.1772 100.024 78.9626 100.18 78.724 100.29C78.4853 100.4 78.2273 100.462 77.9647 100.473L67.2647 100.913H67.1847ZM29.8047 102.413C29.2743 102.413 28.7655 102.202 28.3905 101.827C28.0154 101.452 27.8047 100.943 27.8047 100.413C27.8047 99.8824 28.0154 99.3737 28.3905 98.9986C28.7655 98.6235 29.2743 98.4128 29.8047 98.4128L60.5047 97.1728C61.0351 97.1516 61.5523 97.342 61.9423 97.702C62.3324 98.0621 62.5635 98.5624 62.5847 99.0928C62.6059 99.6232 62.4155 100.14 62.0555 100.53C61.6954 100.921 61.1951 101.152 60.6647 101.173L29.8847 102.413H29.8047ZM45.1847 111.173C44.6543 111.173 44.1455 110.962 43.7705 110.587C43.3954 110.212 43.1847 109.703 43.1847 109.173C43.1847 108.642 43.3954 108.134 43.7705 107.759C44.1455 107.384 44.6543 107.173 45.1847 107.173L77.8047 105.853C78.3351 105.832 78.8523 106.022 79.2423 106.382C79.6324 106.742 79.8635 107.242 79.8847 107.773C79.9059 108.303 79.7155 108.82 79.3555 109.21C78.9954 109.601 78.4951 109.832 77.9647 109.853L45.3447 111.173H45.1847ZM29.8047 111.793C29.2743 111.793 28.7655 111.582 28.3905 111.207C28.0154 110.832 27.8047 110.323 27.8047 109.793C27.8047 109.262 28.0154 108.754 28.3905 108.379C28.7655 108.004 29.2743 107.793 29.8047 107.793L38.0247 107.453C38.2873 107.442 38.5495 107.484 38.7961 107.574C39.0428 107.665 39.2692 107.804 39.4623 107.982C39.6555 108.16 39.8116 108.375 39.9218 108.614C40.032 108.852 40.0942 109.11 40.1047 109.373C40.1152 109.635 40.0739 109.898 39.9831 110.144C39.8923 110.391 39.7538 110.617 39.5755 110.81C39.3972 111.004 39.1826 111.16 38.944 111.27C38.7053 111.38 38.4473 111.442 38.1847 111.453L29.9647 111.793H29.8047Z" fill="black"/>
</svg>
