<svg width="129" height="129" viewBox="0 0 129 129" fill="none" xmlns="http://www.w3.org/2000/svg">
<path d="M104.986 14.0176H102.986V12.0176C102.986 8.71758 100.286 6.01758 96.9863 6.01758H24.9863C21.6863 6.01758 18.9863 8.71758 18.9863 12.0176V108.018C18.9863 111.318 21.6863 114.018 24.9863 114.018H26.9863V116.018C26.9863 119.318 29.6863 122.018 32.9863 122.018H104.986C108.286 122.018 110.986 119.318 110.986 116.018V20.0176C110.986 16.7176 108.286 14.0176 104.986 14.0176ZM24.9863 110.018C23.8863 110.018 22.9863 109.118 22.9863 108.018V12.0176C22.9863 10.9176 23.8863 10.0176 24.9863 10.0176H96.9863C98.0863 10.0176 98.9863 10.9176 98.9863 12.0176V14.0176H32.9863C29.6863 14.0176 26.9863 16.7176 26.9863 20.0176V110.018H24.9863ZM106.986 116.018C106.986 117.118 106.086 118.018 104.986 118.018H32.9863C31.8863 118.018 30.9863 117.118 30.9863 116.018V20.0176C30.9863 18.9176 31.8863 18.0176 32.9863 18.0176H104.986C106.086 18.0176 106.986 18.9176 106.986 20.0176V116.018Z" fill="black"/>
<path d="M93.4064 38.4376L84.6664 36.2976L79.8664 27.0976C79.698 26.7711 79.4426 26.4974 79.1285 26.3068C78.8144 26.1162 78.4538 26.0162 78.0864 26.0176H55.1664C54.4064 26.0176 53.7264 26.4376 53.3864 27.1176L48.8664 36.0176H45.5264C43.3264 36.0176 41.5264 37.8176 41.5264 40.0176V50.5576C41.5264 52.7576 43.3264 54.5576 45.5264 54.5576H48.1864C49.0864 57.9976 52.1864 60.5576 55.9064 60.5576C59.6264 60.5576 62.7264 57.9976 63.6264 54.5576H74.2864C75.1864 57.9976 78.2864 60.5576 82.0064 60.5576C85.7264 60.5576 88.8264 57.9976 89.7264 54.5576H92.4664C94.6664 54.5576 96.4664 52.7576 96.4664 50.5576V42.3176C96.4664 40.4776 95.2264 38.8776 93.4264 38.4376H93.4064ZM80.0064 36.0176H68.2264V30.0176H76.8664L80.0064 36.0176ZM56.3864 30.0176H64.2264V36.0176H53.3464L56.3864 30.0176ZM55.8864 56.5576C53.6864 56.5576 51.8864 54.7576 51.8864 52.5576C51.8864 50.3576 53.6864 48.5576 55.8864 48.5576C58.0864 48.5576 59.8664 50.3376 59.8864 52.5376V52.5976C59.8864 54.7976 58.0864 56.5776 55.8864 56.5776V56.5576ZM81.9864 56.5576C79.7864 56.5576 77.9864 54.7576 77.9864 52.5576C77.9864 50.3576 79.7864 48.5576 81.9864 48.5576C84.1864 48.5576 85.9864 50.3576 85.9864 52.5576C85.9864 54.7576 84.1864 56.5576 81.9864 56.5576ZM92.4464 50.5576H89.7064C88.8064 47.1176 85.7064 44.5576 81.9864 44.5576C78.2664 44.5576 75.1664 47.1176 74.2664 50.5576H63.6064C62.7064 47.1176 59.6064 44.5576 55.8864 44.5576C52.1664 44.5576 49.0664 47.1176 48.1664 50.5576H45.5064V40.0176H83.0464L92.4264 42.3176V50.5576H92.4464ZM92.9864 92.0176H44.9864C43.8864 92.0176 42.9864 92.9176 42.9864 94.0176C42.9864 95.1176 43.8864 96.0176 44.9864 96.0176H92.9864C94.0864 96.0176 94.9864 95.1176 94.9864 94.0176C94.9864 92.9176 94.0864 92.0176 92.9864 92.0176ZM92.9864 82.0176H44.9864C43.8864 82.0176 42.9864 82.9176 42.9864 84.0176C42.9864 85.1176 43.8864 86.0176 44.9864 86.0176H92.9864C94.0864 86.0176 94.9864 85.1176 94.9864 84.0176C94.9864 82.9176 94.0864 82.0176 92.9864 82.0176ZM92.9864 102.018H44.9864C43.8864 102.018 42.9864 102.918 42.9864 104.018C42.9864 105.118 43.8864 106.018 44.9864 106.018H92.9864C94.0864 106.018 94.9864 105.118 94.9864 104.018C94.9864 102.918 94.0864 102.018 92.9864 102.018ZM92.9864 72.0176H44.9864C43.8864 72.0176 42.9864 72.9176 42.9864 74.0176C42.9864 75.1176 43.8864 76.0176 44.9864 76.0176H92.9864C94.0864 76.0176 94.9864 75.1176 94.9864 74.0176C94.9864 72.9176 94.0864 72.0176 92.9864 72.0176Z" fill="black"/>
</svg>
